<?xml version="1.0" standalone="no"?>
<!DOCTYPE svg PUBLIC "-//W3C//DTD SVG 1.1//EN" "http://www.w3.org/Graphics/SVG/1.1/DTD/svg11.dtd" >
<svg xmlns="http://www.w3.org/2000/svg">
<metadata></metadata>
<defs>
<font id="adelle_ltlight" horiz-adv-x="1167" >
<font-face units-per-em="2048" ascent="1546" descent="-502" />
<missing-glyph horiz-adv-x="471" />
<glyph unicode="&#xfb01;" horiz-adv-x="1304" d="M92 0v92l137 12q22 1 27.5 8.5t5.5 32.5v766q0 6 -0.5 8.5t-1.5 6t-4.5 5t-9.5 1.5h-152v115h168v174q0 125 39.5 198.5t139 111.5t272.5 38q43 0 65.5 -0.5t59 -2.5t56 -6t47.5 -11.5t43 -18.5t33.5 -28t28 -39.5t16.5 -52.5t9 -67l-135 -18q-1 27 -5 45.5t-9.5 33 t-20 23t-27.5 14t-41.5 8t-53 3t-70.5 0.5q-99 0 -160.5 -13t-94.5 -44.5t-44 -72.5t-11 -108v-147q0 -12 3.5 -16t13.5 -4h671v-902q0 -25 5 -31.5t28 -9.5l144 -14v-90h-494v92l148 12q20 1 26 9t6 32v766q0 13 -3.5 17t-12.5 4h-535v-785q0 -26 5 -33t28 -8l168 -16v-90 h-508z" />
<glyph unicode="&#xfb02;" horiz-adv-x="1306" d="M92 0v92l137 12q21 1 27 9t6 32v766q0 6 -0.5 8.5t-1.5 6t-4.5 5t-9.5 1.5h-152v115h168v174q0 125 40 198.5t141.5 111.5t279.5 38q43 0 66 -0.5t61 -2.5t58.5 -6t50 -11.5t45.5 -18.5t35 -28t28.5 -39.5t16 -52.5t6.5 -67v-1198q0 -25 4.5 -31.5t27.5 -9.5l133 -14v-90 h-473v92l138 12q20 1 26 9t6 32v1180q0 24 -1.5 41.5t-8.5 31t-13 22.5t-23 15.5t-29.5 9.5t-41.5 4.5t-51 2t-65 0.5q-102 0 -165.5 -13t-97.5 -44t-45.5 -72t-11.5 -109v-147q0 -13 3 -16.5t14 -3.5h342v-115h-359v-785q0 -26 5 -33t28 -8l215 -16v-90h-555z" />
<glyph unicode="&#xfb03;" horiz-adv-x="1994" d="M92 0v92l137 12q21 1 27 9t6 32v766q0 6 -0.5 8.5t-1.5 6t-4.5 5t-9.5 1.5h-152v115h168v143q0 173 82.5 260.5t261.5 87.5q61 0 106 -9.5t83.5 -33t58.5 -69.5t20 -113l-129 -19q0 78 -33 102.5t-112 24.5q-62 0 -102.5 -15t-62 -48t-29 -73t-7.5 -101v-117q0 -12 3 -16 t14 -4h536v174q0 125 39.5 198.5t139 111.5t272.5 38q43 0 65.5 -0.5t59 -2.5t56 -6t47.5 -11.5t43 -18.5t33.5 -28t28 -39.5t16.5 -52.5t9 -67l-135 -18q-1 27 -5 45.5t-9.5 33t-20 23t-27.5 14t-41.5 8t-53 3t-70.5 0.5q-99 0 -160.5 -13t-94 -44.5t-43.5 -72.5t-11 -108 v-147q0 -12 3 -16t13 -4h672v-902q0 -25 4.5 -31.5t27.5 -9.5l144 -14v-90h-494v92l148 12q20 1 26 9t6 32v766q0 13 -3.5 17t-12.5 4h-534v-785q0 -26 5 -33t27 -8l168 -16v-90h-508v92l138 12q22 1 27 8.5t5 32.5v766q0 6 -0.5 8.5t-1.5 6t-4.5 5t-9.5 1.5h-537v-785 q0 -26 5 -33t28 -8l236 -16v-90h-576z" />
<glyph unicode="&#xfb04;" horiz-adv-x="1996" d="M92 0v92l137 12q21 1 27 9t6 32v766q0 6 -0.5 8.5t-1.5 6t-4.5 5t-9.5 1.5h-152v115h168v143q0 173 82.5 260.5t261.5 87.5q61 0 106 -9.5t83.5 -33t58.5 -69.5t20 -113l-129 -19q0 78 -33 102.5t-112 24.5q-62 0 -102.5 -15t-62 -48t-29 -73t-7.5 -101v-117q0 -12 3 -16 t14 -4h536v174q0 125 40 198.5t141.5 111.5t279.5 38q43 0 66 -0.5t61 -2.5t58.5 -6t50 -11.5t45.5 -18.5t35 -28t28.5 -39.5t16 -52.5t6.5 -67v-1198q0 -25 4.5 -31.5t27.5 -9.5l134 -14v-90h-473v92l137 12q20 1 26 9t6 32v1180q0 24 -1.5 41.5t-8.5 31t-13 22.5t-23 15.5 t-29.5 9.5t-41.5 4.5t-51 2t-65 0.5q-102 0 -165 -12.5t-97 -44t-45.5 -72.5t-11.5 -109v-147q0 -13 2.5 -16.5t13.5 -3.5h342v-115h-358v-785q0 -26 5 -33t27 -8l215 -16v-90h-555v92l138 12q21 1 26.5 9t5.5 32v766q0 6 -0.5 8.5t-1.5 6t-4.5 5t-9.5 1.5h-537v-785 q0 -26 5 -33t28 -8l236 -16v-90h-576z" />
<glyph horiz-adv-x="2048" />
<glyph horiz-adv-x="2048" />
<glyph unicode="&#xd;" horiz-adv-x="2048" />
<glyph unicode=" "  horiz-adv-x="471" />
<glyph unicode="&#x09;" horiz-adv-x="471" />
<glyph unicode="&#xa0;" horiz-adv-x="471" />
<glyph unicode="!" horiz-adv-x="524" d="M145 92q0 117 119 117t119 -117t-119 -117t-119 117zM182 1151v332h158v-332l-21 -776h-112z" />
<glyph unicode="&#x22;" horiz-adv-x="737" d="M133 915v531h148v-531h-148zM457 915v531h147v-531h-147z" />
<glyph unicode="#" horiz-adv-x="1243" d="M74 299l26 107h240l51 331h-248l25 109h240l38 266h123l-41 -266h273l39 266h123l-41 -266h247l-22 -109h-242l-47 -331h244l-23 -107h-237l-45 -299h-121l45 299h-277l-45 -299h-120l43 299h-248zM461 406h276l47 331h-272z" />
<glyph unicode="$" horiz-adv-x="1067" d="M84 76v276h100l37 -153q6 -25 13 -34t24 -15q85 -32 223 -35v467q-45 13 -74 22.5t-70 26t-67 33.5t-55 43.5t-45.5 57t-27.5 73t-11 92.5q0 157 95 242.5t255 103.5v151h113v-145q159 -7 328 -68v-301l-105 11l-35 168q-4 23 -12 32t-29 17q-55 19 -147 22v-475 q61 -18 101 -32.5t90 -43t79 -62t49.5 -86.5t20.5 -120q0 -146 -89 -231.5t-251 -106.5v-170h-113v164q-121 0 -231.5 24.5t-165.5 51.5zM262 948q0 -48 16.5 -85t48.5 -63t68 -43.5t86 -33.5v434q-104 -14 -161.5 -67.5t-57.5 -141.5zM594 121q106 14 156.5 67.5 t50.5 135.5q0 90 -53.5 139.5t-153.5 83.5v-426z" />
<glyph unicode="%" horiz-adv-x="1753" d="M102 887q0 172 88 277.5t248 105.5q162 0 240 -95t78 -262q0 -175 -87 -281t-247 -106q-70 0 -125.5 20t-91.5 53.5t-59.5 80.5t-33.5 98t-10 109zM236 897q0 -46 5 -83t18.5 -71.5t34.5 -58t55 -37.5t79 -14q56 0 95 20t60.5 58.5t30.5 85.5t9 108q0 256 -189 256 q-56 0 -96.5 -23.5t-61.5 -63.5t-30.5 -84t-9.5 -93zM420 -35l772 1307h133l-770 -1307h-135zM997 336q0 172 88 277.5t248 105.5q162 0 240 -95t78 -262q0 -175 -87 -281t-247 -106q-70 0 -125.5 20t-91.5 53.5t-59.5 80.5t-33.5 98t-10 109zM1130 346q0 -264 193 -264 q56 0 95 20t60.5 58.5t30.5 85.5t9 108q0 256 -189 256q-56 0 -96.5 -23.5t-62 -63.5t-31 -84t-9.5 -93z" />
<glyph unicode="&#x26;" horiz-adv-x="1456" d="M88 389q0 165 97.5 276.5t283.5 153.5q-52 60 -87.5 133t-35.5 140q0 119 84 201.5t244 82.5q80 0 165 -22t128 -43v-258l-105 6l-24 139q-3 18 -9.5 26.5t-23.5 14.5q-53 18 -131 18q-95 0 -144 -40t-49 -109q0 -76 37.5 -141t155.5 -201l295 -346l12 37q59 186 68 336 h235v-91l-94 -18q-19 -3 -25.5 -9t-9.5 -26q-27 -182 -94 -323l151 -183q13 -16 24 -21.5t36 -10.5l110 -21v-90h-221l-176 213q-93 -125 -206.5 -181.5t-258.5 -56.5q-194 0 -313 113t-119 301zM223 391q0 -56 18 -107.5t54 -95.5t97 -70t140 -26q109 0 205 55t164 160 l-356 412q-150 -23 -236 -103t-86 -225z" />
<glyph unicode="'" horiz-adv-x="413" d="M133 915v531h148v-531h-148z" />
<glyph unicode="(" horiz-adv-x="569" d="M121 573q0 455 309 908l105 -66q-140 -235 -207.5 -429t-67.5 -411q0 -105 16 -205t36 -171.5t61 -163.5t67.5 -142t79.5 -145l-108 -59q-61 96 -107.5 185t-91 201t-68.5 239t-24 259z" />
<glyph unicode=")" horiz-adv-x="569" d="M35 1415l104 66q310 -455 310 -908q0 -132 -24 -259t-68.5 -239t-91 -201t-107.5 -185l-109 59q53 95 79.5 145t67.5 142t61 163.5t36 171.5t16 205q0 217 -67 411.5t-207 428.5z" />
<glyph unicode="*" horiz-adv-x="960" d="M92 1229l45 121l123 -43l186 -103l-18 -61l-213 41zM184 899l84 98l160 146l53 -45l-114 -183l-84 -100zM416 1417v129h129v-129l-31 -213h-68zM481 1098l54 43l157 -144l84 -98l-98 -84l-84 100zM514 1204l188 103l121 43l45 -121l-123 -45l-210 -43z" />
<glyph unicode="+" d="M201 590v135h311v315h141v-315h312v-135h-312v-322h-141v322h-311z" />
<glyph unicode="," horiz-adv-x="358" d="M70 53l45 150q101 -5 148.5 -29t47.5 -92q0 -40 -28 -94l-121 -228l-80 31l63 213q3 16 -10 21z" />
<glyph unicode="-" horiz-adv-x="636" d="M41 522v152h555v-152h-555z" />
<glyph unicode="." horiz-adv-x="421" d="M102 92q0 117 119 117t119 -117t-119 -117t-119 117z" />
<glyph unicode="/" horiz-adv-x="722" d="M12 -188l576 1734h123l-574 -1734h-125z" />
<glyph unicode="0" horiz-adv-x="1153" d="M92 578q0 99 14 184t49.5 166t90.5 137.5t143.5 90.5t202.5 34q112 0 196.5 -32t135.5 -85t82.5 -130.5t43 -158t11.5 -178.5q0 -631 -490 -631q-84 0 -152.5 18t-117.5 48.5t-86.5 76t-60.5 96t-37 113t-19.5 122.5t-5.5 129zM233 565q0 -475 345 -475q78 0 137.5 25 t98 68.5t62.5 108t34 137.5t10 163q0 112 -15 194t-51 148.5t-102.5 100.5t-163.5 34q-191 0 -273 -130t-82 -374z" />
<glyph unicode="1" horiz-adv-x="718" d="M61 0v92l220 12q21 1 26.5 9t5.5 32v842q0 23 -6.5 30.5t-23.5 12.5l-201 35l10 94h359v-1014q0 -25 4.5 -31.5t27.5 -9.5l185 -14v-90h-607z" />
<glyph unicode="2" horiz-adv-x="944" d="M53 864q0 81 23 141.5t59 95t89 55.5t103.5 27.5t112.5 6.5q207 0 305.5 -86t98.5 -236q0 -46 -10.5 -90t-34 -86.5t-45.5 -75.5t-62.5 -75.5t-65.5 -67.5t-74 -70.5t-71 -66.5l-231 -221h479q18 0 24 3.5t9 18.5l33 178h102v-315h-827v102l276 271q28 28 91.5 88t89 85 t68 73t59.5 78.5t31.5 72t14.5 82.5q0 109 -62.5 165t-199.5 56q-69 0 -113 -9t-77.5 -33t-48.5 -68.5t-15 -114.5z" />
<glyph unicode="3" horiz-adv-x="974" d="M29 0l90 96q67 -71 147.5 -106t190.5 -35q58 0 105.5 12.5t89.5 40t65.5 80t23.5 125.5q0 127 -80.5 191.5t-230.5 64.5q-62 0 -141 -12v116l127 13q143 13 218 84.5t75 179.5q0 104 -59.5 163.5t-188.5 59.5q-134 0 -196 -47t-62 -178l-131 16q0 326 397 326 q100 0 175.5 -25t120 -69.5t66 -101t21.5 -124.5q0 -119 -60.5 -202.5t-175.5 -124.5v-8q269 -52 269 -318q0 -177 -112 -282t-322 -105q-135 0 -246.5 47t-175.5 123z" />
<glyph unicode="4" horiz-adv-x="1005" d="M51 172v109l492 886l112 -65l-442 -809h438v446h133v-446h191v-121h-193v-309h-133v309h-598z" />
<glyph unicode="5" horiz-adv-x="1026" d="M41 -2l92 102q134 -143 354 -143q56 0 108 17t97 52t72 96t27 140q0 82 -25 142.5t-67 93.5t-88.5 48t-96.5 15q-87 0 -148 -25.5t-126 -72.5l-107 49l41 647h547q17 0 22.5 4t10.5 19l28 110l88 6v-258h-577l-29 -438q119 80 273 80q182 0 289.5 -109t107.5 -305 q0 -123 -51.5 -221.5t-155 -157.5t-242.5 -59q-137 0 -254 45t-190 123z" />
<glyph unicode="6" horiz-adv-x="1058" d="M106 649q0 61 5.5 120.5t21 128t39.5 127.5t64 114.5t91.5 95t125.5 63t163 23.5q48 0 90 -6.5t86.5 -25t76 -49t51.5 -83t20 -121.5l-131 -16q0 105 -49.5 144.5t-157.5 39.5q-63 0 -115.5 -19.5t-88.5 -51.5t-64 -77t-44 -92t-26.5 -101.5t-14 -100t-3.5 -92.5 q149 137 354 137q181 0 272 -108.5t91 -280.5q0 -202 -107.5 -322.5t-312.5 -120.5q-89 0 -159 25.5t-117 73.5t-79.5 108.5t-49.5 139.5t-24.5 157t-7.5 170zM250 539q13 -451 299 -451q132 0 202 82.5t70 235.5q0 142 -57.5 212t-181.5 70q-93 0 -186 -47t-146 -102z" />
<glyph unicode="7" horiz-adv-x="997" d="M102 825v334h875v-102q-181 -178 -333 -534.5t-161 -659.5h-145q14 160 50.5 315t83.5 277t108 236.5t117 195.5t116 153h-545q-18 0 -23.5 -3.5t-8.5 -18.5l-39 -187z" />
<glyph unicode="8" horiz-adv-x="1015" d="M84 309q0 119 68.5 212t189.5 181q-96 53 -149.5 125t-53.5 181q0 99 53.5 171.5t138 107t187.5 34.5q177 0 275 -83.5t98 -211.5q0 -96 -61.5 -186t-149.5 -162q56 -31 96.5 -61.5t77.5 -72t56.5 -95.5t19.5 -119q0 -169 -120 -262t-314 -93q-181 0 -296.5 88 t-115.5 246zM225 319q0 -107 79 -167t210 -60q122 0 198 65.5t76 166.5q0 61 -22 108t-74.5 85.5t-89 58.5t-115.5 56q-19 9 -28 13q-116 -82 -175 -161t-59 -165zM279 1020q0 -43 17 -80t39.5 -63t67 -55t75.5 -45t89 -44q86 72 134.5 140.5t48.5 146.5q0 52 -19.5 89 t-54.5 57t-76 29t-90 9q-100 0 -165.5 -48.5t-65.5 -135.5z" />
<glyph unicode="9" horiz-adv-x="1118" d="M127 748q0 201 110.5 321.5t317.5 120.5q79 0 142 -19.5t107.5 -52.5t77.5 -84t53 -106t32 -126.5t16 -138t4 -147.5q0 -68 -3.5 -127t-15.5 -131.5t-32 -130.5t-56 -115t-83.5 -95.5t-118.5 -62.5t-158 -24q-237 0 -370 125l75 108q124 -110 297 -110q326 0 326 518 q-155 -143 -356 -143q-184 0 -274.5 114t-90.5 306zM268 760q0 -314 242 -314q100 0 188 48t146 108q-2 40 -3.5 63t-6 67t-10.5 72t-17 68t-26 65.5t-38 54.5t-50.5 46t-66 28t-83.5 11q-133 0 -204 -82t-71 -235z" />
<glyph unicode=":" horiz-adv-x="421" d="M102 92q0 117 119 117t119 -117t-119 -117t-119 117zM102 899q0 117 119 117t119 -117t-119 -117t-119 117z" />
<glyph unicode=";" horiz-adv-x="358" d="M70 53l45 150q101 -5 148.5 -29t47.5 -92q0 -27 -17 -70.5t-36 -78.5t-51 -91.5t-45 -81.5l-80 31q4 13 24 70.5t32 100.5t7 54q-3 5 -10 9zM84 899q0 117 119 117t119 -117t-119 -117t-119 117z" />
<glyph unicode="&#x3c;" d="M182 504v172l748 325l49 -131l-666 -278l674 -266l-41 -125z" />
<glyph unicode="=" d="M207 350v142h756v-142h-756zM207 662v141h756v-141h-756z" />
<glyph unicode="&#x3e;" d="M180 326l674 266l-666 278l50 131l747 -325v-172l-764 -303z" />
<glyph unicode="?" horiz-adv-x="935" d="M82 1165v252q29 12 71 25t121 27t152 14q102 0 179 -19.5t137 -63t91 -119.5t31 -183q0 -385 -438 -465v-260h-137v358q74 6 134 19t117.5 39.5t95.5 64.5t61.5 96.5t23.5 134.5q0 82 -22 138t-64.5 86t-94 42.5t-120.5 12.5q-140 0 -193 -35q-13 -10 -20 -47l-21 -111z M240 92q0 117 118 117q119 0 119 -117t-119 -117q-118 0 -118 117z" />
<glyph unicode="@" horiz-adv-x="1687" d="M102 371q0 231 100 411.5t281 280.5t414 100q204 0 358.5 -74.5t242 -222t87.5 -350.5q0 -144 -30 -251t-85 -169t-124 -91.5t-154 -29.5q-101 0 -150.5 42t-56.5 114q-53 -49 -88.5 -77.5t-90.5 -53.5t-108 -25q-107 0 -161 72t-54 209q0 152 52 277.5t153.5 202.5 t233.5 77q69 0 141.5 -18.5t126.5 -46.5l-60 -361q-24 -141 -24 -199q0 -56 27.5 -81t85.5 -25q96 0 164.5 104.5t68.5 296.5q0 278 -143.5 422t-423.5 144q-193 0 -340.5 -88t-226 -241t-78.5 -345q0 -311 163.5 -463t450.5 -152q178 0 352 64l35 -109q-56 -27 -160.5 -49 t-242.5 -22q-164 0 -297.5 45.5t-232 134t-152.5 228t-54 319.5zM621 276q0 -56 6.5 -90.5t29.5 -58t64 -23.5q59 0 134 50t126 112l63 400q-53 36 -141 36q-118 0 -200 -125t-82 -301z" />
<glyph unicode="A" horiz-adv-x="1423" d="M20 0v90l89 23q40 9 49 39l452 1331h189l463 -1336q4 -12 11 -19t13.5 -9t22.5 -6l94 -23v-90h-449v90l170 19l-125 368h-598l-122 -368l165 -19v-90h-424zM442 598h519l-259 772z" />
<glyph unicode="B" horiz-adv-x="1368" d="M143 0v90l129 14q22 3 27.5 10.5t5.5 30.5v1190q0 24 -6 32t-27 9l-129 15v92h580q102 0 180 -18.5t127.5 -50.5t80.5 -79t43.5 -99t12.5 -116q0 -136 -71.5 -222.5t-177.5 -121.5v-6q172 -20 260 -117t88 -254q0 -89 -26 -157.5t-72.5 -114t-116 -74.5t-150 -41 t-180.5 -12h-578zM440 121h271q77 0 132.5 5.5t111 22.5t90 47.5t56 82.5t21.5 124q0 77 -27.5 135t-78 92t-115.5 51t-145 17h-316v-577zM440 817h219q55 0 103 7t97.5 27t84.5 51t57.5 83.5t22.5 120.5q0 144 -78.5 201t-255.5 57h-250v-547z" />
<glyph unicode="C" horiz-adv-x="1400" d="M113 754q0 164 46 300.5t134 238.5t227.5 159t317.5 57q136 0 254 -29t192 -79v-299l-104 6l-35 192q-1 10 -2.5 15.5t-7.5 11.5t-17 10q-140 52 -291 52q-263 0 -417 -167t-154 -470q0 -317 147.5 -486.5t409.5 -169.5q212 0 320 49q21 9 26 35l33 182h96v-280 q-76 -53 -205 -80t-278 -27q-146 0 -262 37.5t-196 105.5t-133 165.5t-77 214.5t-24 256z" />
<glyph unicode="D" horiz-adv-x="1583" d="M143 0v90l129 14q22 3 27.5 10.5t5.5 30.5v1190q0 24 -6 32t-27 9l-129 15v92h592q374 0 554.5 -188t180.5 -531q0 -173 -46.5 -311.5t-139 -240.5t-241 -157t-343.5 -55h-557zM442 121h269q300 0 458 159t158 453q0 145 -27.5 253.5t-77 180t-125.5 116t-166.5 63 t-207.5 18.5h-281v-1243z" />
<glyph unicode="E" horiz-adv-x="1304" d="M143 0v90l129 14q22 3 27.5 10.5t5.5 30.5v1190q0 24 -6 32t-27 9l-129 15v92h1004v-307l-105 6l-28 159q-3 15 -10.5 21t-24.5 6h-537v-561h574v-115h-574v-577h582q18 0 24 3.5t9 18.5l33 178h102v-315h-1049z" />
<glyph unicode="F" horiz-adv-x="1230" d="M143 0v90l129 14q22 3 27.5 10.5t5.5 30.5v1190q0 24 -6 32t-27 9l-129 15v92h996v-307l-105 6l-28 159q-3 15 -10.5 21t-24.5 6h-529v-555h566v-115h-566v-551q0 -25 5 -31.5t28 -9.5l301 -16v-90h-633z" />
<glyph unicode="G" horiz-adv-x="1529" d="M113 754q0 164 46 300.5t134 238.5t227.5 159t317.5 57q137 0 257.5 -29t194.5 -79v-299l-104 6l-35 192q-1 10 -2.5 15.5t-7.5 11.5t-17 10q-140 52 -297 52q-263 0 -417 -167t-154 -470q0 -318 164.5 -487t462.5 -169q73 0 160.5 11t144.5 26q26 7 26 35v399h-299 l21 113h532v-92l-86 -8q-19 -1 -25.5 -7.5t-6.5 -21.5v-498q-83 -39 -212.5 -58.5t-263.5 -19.5q-162 0 -290.5 38t-216 106.5t-145 166.5t-83.5 214t-26 254z" />
<glyph unicode="H" horiz-adv-x="1646" d="M143 0v90l129 14q22 3 27.5 10.5t5.5 30.5v1192q0 24 -6 32t-27 9l-129 15v90h469v-90l-137 -17q-23 -3 -28 -9t-5 -30v-514h762v514q0 24 -6 32t-27 9l-129 15v90h469v-90l-137 -17q-23 -3 -28 -9t-5 -30v-1190q0 -25 5 -31.5t28 -9.5l137 -16v-90h-469v90l129 14 q22 3 27.5 10.5t5.5 30.5v564h-762v-562q0 -25 5 -31.5t28 -9.5l137 -16v-90h-469z" />
<glyph unicode="I" horiz-adv-x="792" d="M145 0v90l150 14q22 3 27.5 10.5t5.5 30.5v1192q0 24 -6 32t-27 9l-150 15v90h510v-90l-157 -17q-23 -3 -28 -9t-5 -30v-1190q0 -25 5 -31.5t28 -9.5l157 -16v-90h-510z" />
<glyph unicode="J" horiz-adv-x="1021" d="M123 43v252l104 -6l21 -139q3 -20 24 -29q71 -31 164 -31q108 0 147.5 50.5t39.5 164.5v1034q0 22 -6.5 30t-26.5 9l-170 15v90h510v-90l-137 -17q-23 -3 -28 -9t-5 -28v-1050q0 -161 -76.5 -237.5t-243.5 -76.5q-104 0 -193.5 22.5t-123.5 45.5z" />
<glyph unicode="K" horiz-adv-x="1490" d="M143 0v90l129 14q22 3 27.5 10.5t5.5 30.5v1192q0 24 -6 32t-27 9l-129 15v90h469v-90l-137 -17q-23 -3 -28 -9t-5 -30v-614l605 651l-127 17v92h430v-90l-111 -21q-26 -4 -36 -10t-25 -23l-471 -501l540 -695q13 -18 22 -22.5t38 -9.5l123 -21v-90h-490v92q28 3 84 8.5 t84 8.5l-494 630l-172 -184v-408q0 -25 5 -31.5t28 -9.5l137 -16v-90h-469z" />
<glyph unicode="L" horiz-adv-x="1263" d="M143 0v90l129 14q22 3 27.5 10.5t5.5 30.5v1190q0 24 -6 32t-27 9l-129 15v92h502v-92l-170 -17q-22 -1 -27.5 -8.5t-5.5 -30.5v-1220h582q18 0 24 3.5t9 18.5l33 178h102v-315h-1049z" />
<glyph unicode="M" horiz-adv-x="1933" d="M143 0v90l129 14q22 3 27.5 10.5t5.5 30.5v1190q0 24 -6 32t-27 9l-129 15v92h336l492 -977l504 977h323v-90l-137 -17q-23 -3 -28 -9t-5 -30v-1192q0 -20 6.5 -28t26.5 -11l137 -16v-90h-510v90l170 14q22 3 27.5 10.5t5.5 30.5v1100l-461 -874h-127l-461 886v-1110 q0 -25 5 -31.5t28 -9.5l178 -16v-90h-510z" />
<glyph unicode="N" horiz-adv-x="1695" d="M143 0v90l129 14q22 3 27.5 10.5t5.5 30.5v1192q0 23 -5.5 30.5t-27.5 10.5l-129 15v92h361l762 -1295v1147q0 23 -5.5 30.5t-27.5 10.5l-129 15v90h467v-90l-137 -17q-23 -3 -28 -9t-5 -30v-1337h-172l-787 1307v-1160q0 -25 5 -31.5t28 -9.5l137 -16v-90h-469z" />
<glyph unicode="O" horiz-adv-x="1603" d="M117 743q0 167 46 306.5t133.5 242t222.5 160t304 57.5q167 0 296.5 -56.5t209.5 -157t121 -232.5t41 -289q0 -244 -77 -422t-235 -277.5t-384 -99.5q-171 0 -302 57t-212.5 161t-122.5 242.5t-41 307.5zM260 743q0 -310 146 -478.5t397 -168.5q252 0 399.5 168.5 t147.5 489.5q0 303 -142.5 469t-388.5 166q-252 0 -405.5 -169.5t-153.5 -476.5z" />
<glyph unicode="P" horiz-adv-x="1347" d="M143 0v90l129 14q22 3 27.5 10.5t5.5 30.5v1190q0 24 -6 32t-27 9l-129 15v92h609q111 0 196.5 -23t141 -62t91 -95.5t50 -119t14.5 -136.5q0 -253 -144.5 -367.5t-416.5 -114.5h-244v-418q0 -26 5 -33t28 -8l293 -16v-90h-623zM440 686h240q77 0 135 7.5t114.5 30 t92.5 61t58 103.5t22 154q0 167 -93.5 244.5t-297.5 77.5h-271v-678z" />
<glyph unicode="Q" horiz-adv-x="1597" d="M115 754q0 163 46 300.5t133.5 239t222.5 158.5t304 57q134 0 244 -37t187.5 -103t130 -158.5t77.5 -202t25 -234.5q0 -228 -67.5 -398.5t-205.5 -274t-335 -121.5q-7 -51 -7 -95q0 -67 31 -102t103 -35t133 27l32 -105q-26 -14 -74.5 -24.5t-97.5 -10.5 q-141 0 -201.5 60t-60.5 186q0 47 6 96q-159 8 -279.5 69t-196 164.5t-113 240t-37.5 303.5zM258 752q0 -315 146 -485.5t397 -170.5t396.5 168t145.5 490q0 304 -140 469.5t-386 165.5q-252 0 -405.5 -168t-153.5 -469z" />
<glyph unicode="R" horiz-adv-x="1411" d="M143 0v90l129 14q22 3 27.5 10.5t5.5 30.5v1190q0 24 -6 32t-27 9l-129 15v92h598q107 0 189 -24t131.5 -62t81.5 -91.5t43.5 -106.5t11.5 -114q0 -160 -77.5 -259.5t-211.5 -141.5q19 -9 35.5 -25t26.5 -28t24.5 -44t19.5 -45t22 -58q7 -16 10 -25l127 -309 q14 -32 49 -37l137 -23v-90h-488v92l168 17q-26 61 -93.5 224t-94.5 226q-19 44 -50 64t-85 20h-277v-496q0 -25 5 -31.5t28 -9.5l139 -16v-90h-469zM440 764h226q68 0 123.5 9t106 31t85 57.5t54.5 91.5t20 130q0 84 -27 140t-85 86.5t-133.5 42.5t-186.5 12h-183v-600z " />
<glyph unicode="S" horiz-adv-x="1189" d="M123 51v309h100l39 -174q5 -22 10.5 -30t24.5 -15q118 -43 260 -43q365 0 365 285q0 70 -26 122t-70.5 84t-101.5 56.5t-120.5 43t-127 39t-120.5 50.5t-101.5 71t-70.5 107t-26 152q0 104 39 182.5t108.5 125.5t158.5 70t195 23q187 0 365 -67v-328l-104 10l-35 176 q-7 31 -13 39q-12 16 -74 30.5t-147 14.5q-173 0 -260.5 -69t-87.5 -193q0 -66 26 -115.5t70.5 -80t101.5 -54t120.5 -42.5t127 -40.5t120.5 -53.5t101.5 -74.5t70.5 -111t26 -157.5q0 -90 -28 -161.5t-75.5 -119t-115.5 -79t-144.5 -45t-164.5 -13.5q-128 0 -246 25 t-170 51z" />
<glyph unicode="T" horiz-adv-x="1316" d="M63 1167v316h1192v-316h-102l-33 179q-3 15 -9 18.5t-24 3.5h-360v-1221q0 -23 5.5 -30t27.5 -8l225 -17v-92h-639v92l211 14q21 1 27 9t6 32v1221h-359q-18 0 -23.5 -3.5t-8.5 -18.5l-33 -179h-103z" />
<glyph unicode="U" horiz-adv-x="1615" d="M125 1393v90h469v-90l-137 -17q-23 -3 -28 -9t-5 -30v-845q0 -212 97 -304t288 -92q195 0 289 88.5t94 302.5v850q0 24 -6 32t-27 9l-129 15v90h469v-90l-137 -17q-23 -3 -28 -9t-5 -30v-856q0 -253 -135 -379.5t-397 -126.5q-269 0 -389.5 127t-120.5 381v854 q0 24 -6 32t-27 9z" />
<glyph unicode="V" horiz-adv-x="1384" d="M10 1393l21 90h432v-90l-170 -19l412 -1257l401 1257l-166 19l21 90h403v-90l-86 -23q-42 -10 -51 -39l-430 -1331h-189l-456 1335q-4 12 -12 19t-15 9.5t-23 6.5z" />
<glyph unicode="W" horiz-adv-x="1992" d="M20 1393l21 90h469v-90l-186 -21l303 -1208l301 1010h157l299 -1031l310 1229l-191 21l21 90h448v-90l-110 -19q-22 -3 -29.5 -10.5t-13.5 -30.5l-346 -1333h-175l-294 1010l-306 -1010h-159l-351 1333q-5 20 -13 28t-28 11z" />
<glyph unicode="X" horiz-adv-x="1370" d="M41 0v86l102 23q34 8 52 38l395 607l-375 581q-10 17 -20 23.5t-29 11.5l-92 23l20 90h402v-90l-152 -19l330 -518l340 518l-148 19l21 90h383v-90l-86 -23q-32 -8 -51 -39l-373 -567l416 -617q10 -17 19.5 -23t29.5 -11l104 -23v-90h-440v90l151 19l-366 553l-359 -553 l148 -19v-90h-422z" />
<glyph unicode="Y" horiz-adv-x="1220" d="M0 1393l20 90h406v-90l-152 -19l351 -665l342 665l-148 19l21 90h381v-90l-86 -23q-38 -11 -52 -39l-393 -743v-441q0 -25 5 -31.5t28 -9.5l199 -16v-90h-592v90l190 14q21 1 27 9t6 32v437l-412 753q-15 27 -49 35z" />
<glyph unicode="Z" horiz-adv-x="1296" d="M102 0v94l887 1274h-680q-18 0 -24 -3.5t-9 -18.5l-38 -191l-107 -6v334h1028v-99l-883 -1269h719q18 0 24 3.5t9 18.5l39 219h107v-356h-1072z" />
<glyph unicode="[" horiz-adv-x="497" d="M139 -293v1776h297v-90l-137 -17q-23 -3 -28 -9t-5 -30v-1480q0 -25 5 -31.5t28 -9.5l137 -17v-92h-297z" />
<glyph unicode="\" horiz-adv-x="722" d="M12 1546h123l576 -1734h-125z" />
<glyph unicode="]" horiz-adv-x="497" d="M61 -201l138 17q23 3 27.5 9t4.5 30v1480q0 25 -4.5 31.5t-27.5 9.5l-138 17v90h297v-1776h-297v92z" />
<glyph unicode="^" horiz-adv-x="1077" d="M61 612l404 748h141l410 -748h-139l-345 621l-337 -621h-134z" />
<glyph unicode="_" horiz-adv-x="1024" d="M0 -264h1024v-107h-1024v107z" />
<glyph unicode="`" horiz-adv-x="1024" d="M299 1450l107 109l317 -328l-66 -66z" />
<glyph unicode="a" horiz-adv-x="1093" d="M104 248q0 150 91 222.5t278 90.5l293 27v114q0 69 -8.5 112t-33.5 75.5t-71.5 46.5t-120.5 14q-38 0 -57 -0.5t-50 -3.5t-46.5 -9t-35.5 -18t-29.5 -29.5t-17 -44t-7.5 -61.5l-131 17q0 69 25.5 120t62.5 78.5t91.5 43.5t99 20t98.5 4q212 0 290 -76t78 -284v-562 q0 -25 5 -31.5t28 -9.5l106 -14v-90h-249l-19 137l-6 2q-88 -81 -178 -122.5t-201 -41.5q-73 0 -127.5 20t-83.5 48t-47 68t-22.5 71t-4.5 66zM248 264q0 -174 168 -174q100 0 194 56t156 137v196l-268 -24q-143 -13 -196.5 -57t-53.5 -134z" />
<glyph unicode="b" horiz-adv-x="1204" d="M61 1460l17 86h272v-604q62 37 107.5 60t117 44t140.5 21q180 0 281.5 -123.5t101.5 -378.5q0 -304 -113.5 -447t-316.5 -143q-189 0 -326 123l-4 -2l-10 -96h-138q23 161 23 291v1087q0 35 -27 43zM350 246q62 -65 143.5 -108.5t161.5 -43.5q84 0 144 31t95.5 91.5 t52 142.5t16.5 190q0 397 -271 397q-158 0 -342 -131v-569z" />
<glyph unicode="c" horiz-adv-x="974" d="M92 512q0 143 39 251t110 173.5t165.5 98t211.5 32.5q157 0 291 -55v-252l-104 6l-25 135q-3 21 -22 27q-58 20 -156 20q-79 0 -144 -23.5t-115.5 -73.5t-78.5 -134.5t-28 -198.5q0 -214 94.5 -317t265.5 -103q150 0 264 72l53 -115q-54 -36 -146.5 -58t-188.5 -22 q-246 0 -366 144.5t-120 392.5z" />
<glyph unicode="d" horiz-adv-x="1208" d="M106 498q0 289 113.5 429t312.5 140q90 0 174.5 -27.5t147.5 -72.5v413q0 32 -27 41l-125 39l17 86h272v-1401q0 -25 5 -31.5t28 -9.5l106 -14v-90h-249l-17 139l-6 2q-85 -80 -170.5 -123t-198.5 -43q-181 0 -282 127t-101 396zM242 502q0 -116 20.5 -197.5t58 -126 t83 -63.5t104.5 -19q183 0 346 193v528q-56 54 -142 92.5t-177 38.5q-151 0 -222 -117.5t-71 -328.5z" />
<glyph unicode="e" horiz-adv-x="1036" d="M92 528q0 263 126.5 401t324.5 138q192 0 301.5 -116t109.5 -367q0 -26 -4 -88h-714q10 -396 344 -396q91 0 151.5 17t138.5 59l52 -115q-149 -86 -353 -86q-106 0 -188.5 28t-136 77t-88.5 120t-49.5 151.5t-14.5 176.5zM240 606h573q-3 179 -76.5 259.5t-191.5 80.5 q-128 0 -210 -80.5t-95 -259.5z" />
<glyph unicode="f" horiz-adv-x="806" d="M92 0v92l137 12q21 1 27 9t6 32v766q0 6 -0.5 8.5t-1.5 6t-4.5 5t-9.5 1.5h-152v115h168v174q0 172 85 260t265 88q64 0 111.5 -9.5t88.5 -33.5t62 -70t21 -113l-129 -18q0 78 -37 102.5t-123 24.5q-120 0 -163.5 -58t-43.5 -180v-147q0 -12 3 -16t14 -4h342v-115h-359 v-785q0 -26 5 -33t28 -8l236 -16v-90h-576z" />
<glyph unicode="g" horiz-adv-x="1093" d="M72 -209q0 73 34 130t105 124q-50 11 -73 32t-23 60q0 40 41 101l100 157q-65 40 -104 114.5t-39 172.5q0 174 117.5 279.5t314.5 105.5q104 0 176 -20h356v-113l-190 -14q76 -96 76 -218q0 -181 -118 -282t-304 -101q-107 0 -179 29l-96 -192l363 -27q98 -7 159 -15 t117.5 -26t86 -46.5t46.5 -73t17 -109.5q0 -151 -130 -235.5t-390 -84.5q-169 0 -273.5 31.5t-147 85.5t-42.5 135zM217 -184q0 -86 89 -119t269 -33q43 0 113 8q105 15 162 62t57 123q0 72 -56.5 105.5t-170.5 39.5l-336 21q-127 -113 -127 -207zM252 690q0 -113 70 -183.5 t219 -70.5q131 0 208.5 71.5t77.5 186.5q0 125 -72.5 192.5t-207.5 67.5t-215 -67t-80 -197z" />
<glyph unicode="h" horiz-adv-x="1294" d="M86 1460l16 86h273v-3v-3v-3v-3v-3v-3v-3v-3v-3v-3v-3v-3v-3v-3v-3v-3v-3v-3v-3v-3v-3v-3v-3v-3v-3v-3v-3v-3v-3v-3v-3v-3v-3v-3v-3v-3v-3v-3v-3v-3v-3v-3v-3v-3v-3v-3v-3v-3v-3v-3v-3v-3v-3v-3v-3v-3v-3v-3v-3v-3v-3v-3v-3v-3v-3v-3v-3v-3v-3v-3v-3v-3v-3v-3v-3v-3v-3 v-3v-3v-3v-3v-3v-3v-3v-3v-3v-3v-3v-3v-3v-3v-3v-3v-3v-3v-3v-3v-3v-3v-3v-3v-3v-3v-3v-3v-3v-3v-3v-3v-3v-3v-3v-3v-3v-3v-3v-3v-3v-3v-3v-3v-3v-3v-3v-3v-3v-3v-3v-3v-3v-3v-3v-3v-3v-3v-3v-3v-3v-3v-3v-3v-3v-3v-3v-3v-3v-3v-3v-3v-3v-3v-3v-3v-3v-3v-3v-3v-2v-3v-3v-3 v-3v-3v-3v-3v-3v-3v-3v-3v-3v-3v-3v-3v-3v-3v-3v-3v-3v-3v-3v-3v-3v-3v-3v-3v-3v-3v-3v-3v-3v-3v-3v-3v-3v-2v-3v-3v-3v-3v-3v-3v-3v-3v-3v-2v-10q95 69 183 106t198 37q163 0 242 -92t79 -297v-533q0 -25 5 -31.5t28 -9.5l123 -14v-90h-432v92l106 12q22 3 27.5 9.5 t5.5 29.5v500q0 155 -49.5 227t-159.5 72q-100 0 -198 -49t-158 -105v-643q0 -25 5 -31.5t28 -9.5l122 -14v-90h-432v92l107 12q22 3 27.5 10.5t5.5 30.5v1233q0 35 -27 43z" />
<glyph unicode="i" horiz-adv-x="591" d="M57 0v92l148 12q22 3 27.5 10.5t5.5 30.5v734q0 35 -27 43l-119 39l17 86h266v-902q0 -25 5 -31.5t28 -9.5l143 -14v-90h-494zM168 1409q0 52 29 80.5t82 28.5t81.5 -28.5t28.5 -80.5t-28.5 -80.5t-81.5 -28.5t-82 28.5t-29 80.5z" />
<glyph unicode="j" horiz-adv-x="563" d="M-164 -377l68 101q31 -26 82 -45t104 -19q85 0 114 54t29 173v992q0 22 -4.5 30.5t-19.5 12.5l-139 39l16 86h285v-1190q0 -159 -65 -236.5t-206 -77.5q-81 0 -152 22.5t-112 57.5zM168 1409q0 52 29 80.5t82 28.5t81.5 -28.5t28.5 -80.5t-28.5 -80.5t-81.5 -28.5 t-82 28.5t-29 80.5z" />
<glyph unicode="k" horiz-adv-x="1185" d="M68 0v92l137 12q22 3 27.5 10.5t5.5 30.5v1233q0 35 -27 43l-125 39l16 86h273v-1030l459 531h204v-91l-120 -26q-31 -7 -52 -31l-202 -229l331 -527q11 -18 20.5 -22.5t39.5 -9.5l110 -21v-90h-430v92l127 17l-291 454l-196 -221v-197q0 -25 5 -31.5t28 -9.5l133 -14 v-90h-473z" />
<glyph unicode="l" horiz-adv-x="591" d="M68 0v92l137 12q21 1 27 9t6 32v1233q0 35 -27 43l-125 39l16 86h273v-1401q0 -25 5 -31.5t28 -9.5l133 -14v-90h-473z" />
<glyph unicode="m" horiz-adv-x="1886" d="M92 961l17 86h231l16 -127l6 -2q190 149 386 149q97 0 155 -33t88 -100q186 133 375 133q88 0 148.5 -26.5t93.5 -79.5t47 -121t14 -162v-533q0 -25 5 -31.5t28 -9.5l123 -14v-90h-432v92l106 12q22 3 27.5 9.5t5.5 29.5v492q0 162 -41.5 234.5t-155.5 72.5 q-146 0 -313 -121q8 -52 8 -133v-543q0 -25 5 -31.5t28 -9.5l106 -14v-90h-409v92l100 12q22 3 27.5 9.5t5.5 29.5v502q0 164 -34 230.5t-142 66.5q-71 0 -144.5 -29t-116.5 -59.5t-81 -65.5v-643q0 -25 5 -31.5t28 -9.5l122 -14v-90h-432v92l107 12q22 3 27.5 10.5 t5.5 30.5v734q0 35 -27 43z" />
<glyph unicode="n" horiz-adv-x="1294" d="M92 961l17 86h231l16 -127l6 -2q200 149 398 149q172 0 244.5 -99.5t72.5 -289.5v-533q0 -25 5 -31.5t28 -9.5l123 -14v-90h-432v92l106 12q22 3 27.5 9.5t5.5 29.5v492q0 161 -48.5 234t-160.5 73q-100 0 -198 -49t-158 -105v-643q0 -25 5 -31.5t28 -9.5l122 -14v-90 h-432v92l107 12q22 3 27.5 10.5t5.5 30.5v734q0 35 -27 43z" />
<glyph unicode="o" horiz-adv-x="1153" d="M92 526q0 163 53 282.5t167 189t280 69.5q124 0 215.5 -39t146 -110.5t81 -165t26.5 -211.5q0 -266 -122 -416t-368 -150q-125 0 -218 40.5t-149.5 115t-84 173t-27.5 222.5zM233 524q0 -212 88 -324t257 -112t255.5 110.5t86.5 327.5q0 211 -82 315.5t-250 104.5 q-172 0 -263.5 -106.5t-91.5 -315.5z" />
<glyph unicode="p" horiz-adv-x="1228" d="M92 961l17 86h233l16 -123l4 -2q189 145 377 145q180 0 281.5 -123.5t101.5 -378.5q0 -525 -348 -583q-47 -7 -82 -7q-189 0 -313 121l-4 -2v-383q0 -26 5 -33t28 -8l184 -14v-90h-473v92l86 12q22 3 27.5 10.5t5.5 30.5v1168q0 35 -27 43zM375 246q62 -65 143.5 -108.5 t161.5 -43.5q163 0 235 116.5t72 338.5q0 395 -270 395q-91 0 -184.5 -46.5t-157.5 -100.5v-551z" />
<glyph unicode="q" horiz-adv-x="1181" d="M106 496q0 287 113 429t307 142q177 0 328 -109l20 89h138q-21 -175 -21 -267v-1069q0 -23 5.5 -30.5t27.5 -10.5l106 -12v-92h-452v90l143 14q23 1 28 8t5 33v424l-2 2q-83 -79 -165.5 -120.5t-192.5 -41.5q-388 0 -388 521zM242 504q0 -117 20.5 -199t58 -126.5 t83 -63.5t104.5 -19q183 0 346 193v528q-55 53 -142.5 92t-176.5 39q-151 0 -222 -117t-71 -327z" />
<glyph unicode="r" horiz-adv-x="854" d="M92 961l17 86h233l18 -132q44 41 82 69.5t104 55.5t132 27q68 0 135 -18v-285l-104 6l-27 156q-2 11 -6.5 14.5t-18.5 3.5q-72 0 -149.5 -48t-132.5 -103v-648q0 -25 5 -31.5t28 -9.5l184 -14v-90h-494v92l107 12q22 3 27.5 10.5t5.5 30.5v734q0 35 -27 43z" />
<glyph unicode="s" horiz-adv-x="919" d="M82 43v252l104 -6l25 -135q3 -21 22 -27q107 -37 222 -37q116 0 181.5 44t65.5 134q0 32 -8.5 58t-27.5 45.5t-38.5 33t-52.5 26t-57 19.5t-65 17q-40 10 -55 13.5t-52.5 14t-53.5 18t-46.5 22t-45 28t-34.5 35t-29.5 44.5t-16.5 54t-7 66q0 65 21.5 117.5t58 87t87 57.5 t106.5 33t118 10q93 0 176 -18.5t125 -36.5v-252l-105 6l-24 135q-3 20 -23 27q-70 24 -170 24q-121 0 -180 -48.5t-59 -125.5q0 -21 5 -39.5t11.5 -32.5t21.5 -28t25 -22.5t33.5 -19t35.5 -15.5t41.5 -13.5t41.5 -11.5t45 -12q44 -11 69 -18.5t65 -22t63.5 -28.5 t52.5 -37.5t44.5 -50t26.5 -64t11 -82.5q0 -83 -33 -144.5t-91 -95.5t-125.5 -50t-146.5 -16q-107 0 -214 24t-144 44z" />
<glyph unicode="t" horiz-adv-x="819" d="M61 932v92q78 10 118 37t60.5 79.5t34.5 159.5h93v-233q0 -8 0.5 -11t4 -6t11.5 -3h305v-115h-321v-651q0 -100 33.5 -141.5t121.5 -41.5q92 0 197 41l39 -106q-146 -58 -264 -58q-132 0 -198.5 65t-66.5 189v682q0 6 -0.5 8.5t-1.5 6t-4.5 5t-9.5 1.5h-152z" />
<glyph unicode="u" horiz-adv-x="1288" d="M96 961l15 86h264v-658q0 -158 39 -227.5t145 -69.5q194 0 375 211v580q0 26 -5.5 34.5t-27.5 12.5l-110 31l14 86h266v-900q0 -23 6 -32t21 -11l112 -14v-90h-252l-18 150l-4 2q-194 -177 -404 -177q-163 0 -228.5 95t-65.5 282v529q0 26 -5.5 35.5t-27.5 13.5z" />
<glyph unicode="v" horiz-adv-x="1148" d="M20 956l21 91h387v-91l-145 -16l305 -813l305 813l-139 16l20 91h354v-91l-65 -12q-24 -5 -34 -11t-17 -24l-350 -909h-156l-354 903q-6 18 -14.5 24t-28.5 11z" />
<glyph unicode="w" horiz-adv-x="1689" d="M20 956l21 91h379v-91l-137 -16l256 -801l252 877h157l228 -873l245 797l-139 16l21 91h366v-91l-74 -12q-28 -4 -37.5 -12t-15.5 -29q-36 -115 -287 -903h-165l-224 862l-250 -862h-163l-301 903q-6 18 -14.5 24t-28.5 11z" />
<glyph unicode="x" horiz-adv-x="1153" d="M20 0v90l115 23q25 4 47 32l301 387l-280 367q-21 26 -49 35l-93 22l21 91h385v-91l-137 -16l241 -313l248 313l-137 16l20 91h379v-91l-96 -20q-27 -9 -51 -39l-279 -356l301 -391q14 -18 25 -26t29 -11l123 -23v-90h-449v90l139 19l-256 333l-258 -333l142 -19v-90 h-431z" />
<glyph unicode="y" horiz-adv-x="1161" d="M20 956l21 91h389v-91l-139 -16l293 -756l305 756l-141 16l20 91h373v-91l-70 -10q-21 -3 -32.5 -10.5t-18.5 -24.5l-518 -1237l192 -18v-90h-504v92l144 16q17 1 25 10t18 33l131 303l-361 881q-7 18 -15 24t-28 11z" />
<glyph unicode="z" horiz-adv-x="974" d="M82 0v86l639 846h-453q-18 0 -22 -27l-25 -135l-108 -6v283h786v-91l-635 -841h484q18 0 22 26l25 156l108 6v-303h-821z" />
<glyph unicode="{" horiz-adv-x="561" d="M20 539v104q41 1 71 8.5t58.5 27t43 59t14.5 98.5q0 63 -13.5 206.5t-13.5 198.5q0 124 69.5 177t233.5 71l21 -100q-36 -8 -55 -12.5t-43.5 -12t-35.5 -14.5t-24.5 -17t-18.5 -23t-8.5 -30t-3.5 -39q0 -52 12.5 -194.5t12.5 -215.5q0 -59 -11.5 -102.5t-34 -70t-44 -41 t-53.5 -27.5q25 -10 43 -20t38 -29t32.5 -43t21 -62t8.5 -86q0 -73 -12.5 -211t-12.5 -190q0 -22 3.5 -39t8.5 -30t18.5 -23t24.5 -17t35.5 -14.5t43.5 -12t55 -12.5l-21 -100q-164 18 -233.5 71t-69.5 177q0 55 13.5 194.5t13.5 202.5q0 59 -14.5 98.5t-43 59t-58.5 27 t-71 8.5z" />
<glyph unicode="|" horiz-adv-x="573" d="M225 -293v1839h123v-1839h-123z" />
<glyph unicode="}" horiz-adv-x="561" d="M57 -199q36 8 55 12.5t43.5 12t35.5 14.5t24.5 17t18.5 23t8.5 30t3.5 39q0 52 -12.5 190t-12.5 211q0 48 8.5 86t21 62t33 43t38.5 29t43 20q-32 13 -54 27.5t-44.5 41t-34 70t-11.5 102.5q0 73 12.5 214t12.5 196q0 22 -3.5 39t-8.5 30t-18.5 23t-24.5 17t-35.5 14.5 t-43.5 12t-55 12.5l21 100q164 -18 233.5 -71t69.5 -177q0 -79 -13.5 -212t-13.5 -193q0 -59 14.5 -98.5t43 -59t58.5 -27t71 -8.5v-104q-64 -2 -108 -22.5t-64 -72.5q-15 -37 -15 -98q0 -76 13.5 -214t13.5 -183q0 -124 -69.5 -177t-233.5 -71z" />
<glyph unicode="~" horiz-adv-x="952" d="M35 627q47 99 96 146.5t131 47.5q81 0 239 -47t220 -47q47 0 68.5 25t44.5 90l90 -29q-13 -49 -25.5 -81t-33.5 -63t-54 -46t-78 -15q-79 0 -244.5 47t-222.5 47q-46 0 -75 -24.5t-70 -87.5z" />
<glyph unicode="&#xa1;" horiz-adv-x="524" d="M160 950q0 117 119 117q118 0 118 -117q0 -116 -118 -116q-119 0 -119 116zM197 -109l24 777h113l20 -777v-331h-157v331z" />
<glyph unicode="&#xa2;" horiz-adv-x="1001" d="M123 569q0 228 108 354t291 152v211h113v-203q149 -2 278 -55v-252l-96 6l-22 131q-3 15 -7.5 21t-17.5 10q-62 18 -135 21v-781q96 3 141 19q13 4 17 9.5t6 18.5l24 136l97 6v-252q-122 -53 -285 -55v-203h-113v209q-191 24 -295 148t-104 349zM266 582q0 -339 256 -389 v763q-122 -24 -189 -116.5t-67 -257.5z" />
<glyph unicode="&#xa3;" horiz-adv-x="1122" d="M66 623v114h172v146q0 98 22.5 175.5t71 137.5t131 92.5t196.5 32.5q57 0 102.5 -6.5t90 -25.5t74 -50t47.5 -83t18 -122l-129 -18q0 107 -50.5 147.5t-158.5 40.5q-98 0 -156.5 -31.5t-89 -110.5t-30.5 -216v-109h399v-114h-399v-43q0 -80 -1 -117.5t-7.5 -95t-20 -92.5 t-40 -77.5t-66.5 -82.5h583q18 0 24 3.5t9 18.5l33 178h102v-315h-891l-24 96q34 28 59.5 57t42.5 53.5t28.5 60t17.5 59.5t8.5 70t3 74.5t0.5 88.5v31v33h-172z" />
<glyph unicode="&#xa4;" d="M12 115l195 194q-68 110 -68 269q0 135 72 251l-193 191l103 100l184 -184q120 96 291 96q175 0 289 -90l176 176l94 -96l-182 -184q65 -109 65 -252q0 -156 -80 -277l195 -192l-102 -99l-191 187q-114 -84 -278 -84q-175 0 -287 88l-189 -191zM295 578q0 -149 74 -241.5 t223 -92.5q139 0 215 94t76 240q0 155 -75 241t-222 86q-141 0 -216 -89.5t-75 -237.5z" />
<glyph unicode="&#xa5;" horiz-adv-x="1048" d="M-20 1192l20 90h401v-90l-151 -18l289 -447q183 287 282 447l-147 18l20 90h375v-90l-86 -23q-32 -8 -51 -39l-266 -413h215v-115h-277v-121h277v-114h-277v-220q0 -25 5.5 -32.5t27.5 -8.5l199 -16v-90h-592v90l190 14q22 1 27.5 10t5.5 31v222h-277v114h277v121h-277 v115h209l-278 418q-10 17 -19.5 23t-29.5 11z" />
<glyph unicode="&#xa6;" horiz-adv-x="573" d="M225 -293v795h123v-795h-123zM225 840v706h123v-706h-123z" />
<glyph unicode="&#xa7;" horiz-adv-x="1105" d="M164 506q0 83 43 154t108 116q-100 76 -100 211q0 101 53 169.5t134.5 97t185.5 28.5q169 0 303 -55v-252l-105 6l-24 135q-3 20 -23 27q-70 24 -168 24q-117 0 -170 -47.5t-53 -126.5q0 -53 33 -89.5t85 -56.5t115.5 -36t127 -37.5t115.5 -52t85 -87.5t33 -136 q0 -158 -158 -271q107 -75 107 -202q0 -71 -21.5 -126.5t-57 -90.5t-84.5 -58t-100 -32t-108 -9q-96 0 -204 25t-142 43v252l105 -6l24 -136q4 -22 23 -28q102 -35 204 -35q107 0 165.5 45t58.5 139q0 50 -25.5 86.5t-67 55.5t-94.5 36t-108 29t-108 34.5t-94.5 51.5 t-67 81.5t-25.5 123.5zM297 526q0 -41 18 -74t44 -53t69 -39t80 -29.5t90.5 -26.5t87.5 -28q119 72 119 213q0 41 -17.5 73t-43.5 51t-67.5 35.5t-78.5 25.5t-89.5 23t-86.5 26q-59 -29 -92 -85t-33 -112z" />
<glyph unicode="&#xa8;" horiz-adv-x="1024" d="M205 1348q0 46 28 73t74 27t74.5 -27.5t28.5 -72.5q0 -46 -28.5 -73.5t-74.5 -27.5t-74 27.5t-28 73.5zM612 1348q0 45 28.5 72.5t74.5 27.5t74 -27t28 -73t-28 -73.5t-74 -27.5t-74.5 27.5t-28.5 73.5z" />
<glyph unicode="&#xa9;" horiz-adv-x="1554" d="M100 625q0 155 53 283.5t145.5 213.5t216 131.5t265.5 46.5q312 0 493 -175.5t181 -471.5q0 -200 -85.5 -354.5t-239.5 -239t-353 -84.5q-164 0 -294 49.5t-213 138t-126 206t-43 256.5zM205 627q0 -263 153.5 -413.5t421.5 -150.5q265 0 419.5 155.5t154.5 422.5 q0 182 -74.5 312.5t-202.5 194.5t-297 64q-166 0 -295.5 -68t-204.5 -202t-75 -315zM416 645q0 179 101 288t290 109q117 0 229 -41v-210l-80 6l-20 110q-3 13 -18 19q-57 22 -130 22q-108 0 -177.5 -74.5t-69.5 -232.5q0 -135 65 -219t197 -84q69 0 115 22q12 6 18 25 l29 111h69v-201q-82 -49 -233 -49q-102 0 -177.5 29.5t-120 84.5t-66 125.5t-21.5 159.5z" />
<glyph unicode="&#xaa;" horiz-adv-x="755" d="M74 739q0 96 60.5 144t184.5 57l183 14v74q0 78 -26.5 110.5t-110.5 32.5q-31 0 -48 -1t-38.5 -6t-32 -15.5t-18.5 -29.5t-9 -48l-113 12q0 179 261 179q143 0 198.5 -49.5t55.5 -182.5v-348q0 -16 3.5 -21t18.5 -6l68 -10v-70h-187l-12 84l-4 3q-115 -103 -244 -103 q-190 0 -190 180zM197 752q0 -101 102 -101q58 0 112 29.5t91 73.5v123l-156 -13q-85 -7 -117 -32.5t-32 -79.5z" />
<glyph unicode="&#xab;" horiz-adv-x="868" d="M133 532l182 304h136l-150 -279q-7 -13 -7.5 -20t5.5 -19l150 -307h-136zM432 532l182 304h136l-150 -279q-7 -13 -7.5 -20t5.5 -19l150 -307h-136z" />
<glyph unicode="&#xac;" d="M201 600v135h764v-327h-142v192h-622z" />
<glyph unicode="&#xad;" horiz-adv-x="636" d="M41 522v152h555v-152h-555z" />
<glyph unicode="&#xae;" horiz-adv-x="915" d="M82 969q0 171 108 274t269 103q172 0 273.5 -99t101.5 -264q0 -167 -105 -271t-272 -104q-180 0 -277.5 100.5t-97.5 260.5zM164 971q0 -135 79 -212t216 -77t216 79t79 216q0 141 -81.5 218t-213.5 77q-128 0 -211.5 -81t-83.5 -220zM293 786v39l33 4q10 2 10 11v284 q0 7 -6 10t-22 4l-15 1v39h178q131 0 131 -111q0 -80 -78 -109q14 -4 33 -36l45 -78q5 -10 16 -13l37 -6v-39h-159v39l36 4l-53 93q-11 20 -37 20h-32v-100q0 -11 10 -13l33 -4v-39h-160zM410 999h26q43 0 66.5 14t23.5 52q0 32 -18.5 43.5t-56.5 11.5h-41v-121z" />
<glyph unicode="&#xaf;" horiz-adv-x="1024" d="M201 1262v116h620v-116h-620z" />
<glyph unicode="&#xb0;" horiz-adv-x="614" d="M102 1356q0 99 58.5 154t148.5 55q91 0 147 -52.5t56 -148.5t-54.5 -150.5t-148.5 -54.5q-96 0 -151.5 52.5t-55.5 144.5zM201 1356q0 -52 27.5 -80.5t80.5 -28.5q52 0 78.5 30.5t26.5 86.5q0 113 -105 113q-51 0 -79.5 -30.5t-28.5 -90.5z" />
<glyph unicode="&#xb1;" d="M201 0v135h764v-135h-764zM201 590v135h311v315h141v-315h312v-135h-312v-322h-141v322h-311z" />
<glyph unicode="&#xb2;" horiz-adv-x="704" d="M57 717v84l256 309q102 126 127 170q39 66 39 127q0 62 -35 93.5t-120 31.5q-74 0 -107 -29.5t-33 -105.5l-121 14q0 56 17 97t42.5 64.5t63.5 37.5t72 18t76 4q141 0 209.5 -56t68.5 -159q0 -85 -41.5 -158.5t-128.5 -175.5l-227 -272h305q10 0 14 2.5t7 11.5l20 111h94 v-219h-598z" />
<glyph unicode="&#xb3;" horiz-adv-x="708" d="M31 817l78 86q90 -94 217 -94q81 0 130.5 40.5t49.5 125.5q0 162 -189 162q-43 0 -92 -9v101l80 8q182 15 182 166q0 62 -35.5 95.5t-119.5 33.5q-72 0 -105.5 -30.5t-33.5 -104.5l-123 14q0 221 270 221q138 0 208 -56t70 -161q0 -83 -41.5 -137t-113.5 -78v-6 q174 -40 174 -223q0 -129 -85 -200t-224 -71q-91 0 -168.5 30.5t-128.5 86.5z" />
<glyph unicode="&#xb4;" horiz-adv-x="1024" d="M299 1231l317 328l107 -109l-358 -285z" />
<glyph unicode="&#xb5;" horiz-adv-x="1288" d="M221 -360v1407h137v-689q0 -141 42 -203.5t149 -62.5q102 0 198.5 62t170.5 149v744h137v-900q0 -23 5.5 -32.5t20.5 -10.5l113 -14v-90h-254l-16 145l-6 2q-202 -172 -388 -172q-120 0 -176 72l-6 -4l10 -403h-137z" />
<glyph unicode="&#xb6;" horiz-adv-x="1120" d="M20 819q0 133 45 232.5t124.5 157t178 85t216.5 27.5h485v-90l-137 -17q-23 -3 -28 -9t-5 -29v-1311q0 -18 6 -23t27 -8l137 -16v-90h-307v1478h-182v-1478h-301v90l139 16q15 1 19.5 7.5t4.5 23.5v487q-194 19 -308 143t-114 324z" />
<glyph unicode="&#xb7;" horiz-adv-x="360" d="M61 618q0 117 119 117t119 -117q0 -116 -119 -116t-119 116z" />
<glyph unicode="&#xb8;" horiz-adv-x="1024" d="M293 -459l12 94q30 -6 68 -6q76 0 114.5 30t38.5 83q0 45 -32.5 70t-114.5 26l31 223l106 -16l-18 -135q66 -13 106.5 -54t40.5 -108q0 -39 -14 -75t-43 -68.5t-82 -52t-123 -19.5q-51 0 -90 8z" />
<glyph unicode="&#xb9;" horiz-adv-x="505" d="M51 717v78l125 8q13 1 17 6t4 20v654q0 22 -19 28l-127 23l10 78h267v-783q0 -15 3.5 -20t16.5 -6l123 -8v-78h-420z" />
<glyph unicode="&#xba;" horiz-adv-x="788" d="M66 913q0 161 85 255t252 94q164 0 242 -91t78 -247q0 -172 -82.5 -268.5t-249.5 -96.5q-166 0 -245.5 95t-79.5 259zM188 913q0 -130 52.5 -197t154.5 -67q203 0 203 264q0 130 -48.5 192t-148.5 62q-213 0 -213 -254z" />
<glyph unicode="&#xbb;" horiz-adv-x="868" d="M119 211l149 289q7 13 7.5 20t-5.5 19l-149 297h135l180 -314l-182 -311h-135zM418 211l149 289q7 13 7.5 20t-5.5 19l-149 297h135l180 -314l-182 -311h-135z" />
<glyph unicode="&#xbc;" horiz-adv-x="1751" d="M154 575v78l125 9q13 1 16.5 6t3.5 20v653q0 23 -18 29l-127 23l10 77h266v-782q0 -15 4 -20t17 -6l122 -9v-78h-419zM434 -25l729 1508h129l-727 -1508h-131zM969 213v100l364 578h162v-574h117v-106h-119v-211h-123v213h-401zM1100 317h270v431z" />
<glyph unicode="&#xbd;" horiz-adv-x="1751" d="M162 575v78l125 9q13 1 16.5 6t3.5 20v653q0 23 -18 29l-127 23l10 77h266v-782q0 -15 4 -20t17 -6l123 -9v-78h-420zM371 -25l729 1508h129l-727 -1508h-131zM1040 0v84l256 309q102 126 127 170q39 66 39 127q0 62 -35 93.5t-120 31.5q-74 0 -107 -29.5t-33 -105.5 l-120 14q0 56 17 97t42.5 64.5t63 37.5t71.5 18t76 4q141 0 209.5 -56t68.5 -159q0 -85 -41.5 -158t-128.5 -175l-227 -273h305q10 0 14 3t7 12l20 110h94v-219h-598z" />
<glyph unicode="&#xbe;" horiz-adv-x="1751" d="M70 676l77 86q90 -94 218 -94q81 0 130.5 40.5t49.5 125.5q0 161 -189 161q-48 0 -92 -8v100l80 9q182 15 182 166q0 62 -35.5 95.5t-119.5 33.5q-72 0 -106 -31t-34 -105l-122 15q0 221 270 221q138 0 208 -56t70 -161q0 -83 -41.5 -137t-113.5 -78v-6 q83 -19 128.5 -75.5t45.5 -148.5q0 -129 -85 -199.5t-224 -70.5q-91 0 -168.5 30.5t-128.5 86.5zM494 -25l729 1508h129l-727 -1508h-131zM1032 213v100l365 578h162v-574h116v-106h-119v-211h-122v213h-402zM1163 317h271v431z" />
<glyph unicode="&#xbf;" horiz-adv-x="935" d="M98 -55q0 385 439 465v260h137v-359q-43 -4 -76.5 -9t-81 -16.5t-83 -27t-73.5 -42.5t-62 -61.5t-40 -85t-16 -112.5q0 -82 22 -138.5t65 -86.5t94 -42t120 -12q51 0 92 5.5t65 14.5t37 18.5t15 19.5l24 135l105 6v-252q-28 -12 -71 -24.5t-121.5 -26.5t-151.5 -14 q-102 0 -179 19.5t-137 63t-91.5 119.5t-31.5 183zM485 950q0 117 119 117t119 -117q0 -116 -119 -116t-119 116z" />
<glyph unicode="&#xc0;" horiz-adv-x="1423" d="M20 0v90l89 23q40 9 49 39l452 1331h189l463 -1336q4 -12 11 -19t13.5 -9t22.5 -6l94 -23v-90h-449v90l170 19l-125 368h-598l-122 -368l165 -19v-90h-424zM442 598h519l-259 772zM451 1784l81 129l371 -268l-49 -78z" />
<glyph unicode="&#xc1;" horiz-adv-x="1423" d="M20 0v90l89 23q40 9 49 39l452 1331h189l463 -1336q4 -12 11 -19t13.5 -9t22.5 -6l94 -23v-90h-449v90l170 19l-125 368h-598l-122 -368l165 -19v-90h-424zM442 598h519l-259 772zM510 1647l371 268l82 -129l-404 -217z" />
<glyph unicode="&#xc2;" horiz-adv-x="1423" d="M20 0v90l89 23q40 9 49 39l452 1331h189l463 -1336q4 -12 11 -19t13.5 -9t22.5 -6l94 -23v-90h-449v90l170 19l-125 368h-598l-122 -368l165 -19v-90h-424zM389 1638l238 203h155l238 -203l-72 -69l-243 172l-244 -172zM442 598h519l-259 772z" />
<glyph unicode="&#xc3;" horiz-adv-x="1423" d="M20 0v90l89 23q40 9 49 39l452 1331h189l463 -1336q4 -12 11 -19t13.5 -9t22.5 -6l94 -23v-90h-449v90l170 19l-125 368h-598l-122 -368l165 -19v-90h-424zM352 1649l60 84q31 45 58 62t60 17q23 0 68 -10l274 -71q21 -6 33 6l80 80l74 -56l-47 -65q-38 -53 -66 -73.5 t-61 -20.5t-60 8l-280 73q-21 6 -33 -6l-86 -84zM442 598h519l-259 772z" />
<glyph unicode="&#xc4;" horiz-adv-x="1423" d="M20 0v90l89 23q40 9 49 39l452 1331h189l463 -1336q4 -12 11 -19t13.5 -9t22.5 -6l94 -23v-90h-449v90l170 19l-125 368h-598l-122 -368l165 -19v-90h-424zM399 1702q0 45 28.5 72.5t74.5 27.5t74 -27t28 -73t-28 -73t-74 -27t-74.5 27.5t-28.5 72.5zM442 598h519 l-259 772zM807 1702q0 46 28 73t74 27t74.5 -27.5t28.5 -72.5t-28.5 -72.5t-74.5 -27.5t-74 27t-28 73z" />
<glyph unicode="&#xc5;" horiz-adv-x="1423" d="M20 0v90l89 23q40 9 49 39l450 1325q-84 43 -84 151q0 85 51.5 132.5t129.5 47.5t128 -45.5t50 -130.5q0 -107 -84 -153l463 -1332q4 -12 11 -19t13.5 -9t22.5 -6l94 -23v-90h-449v90l170 19l-125 368h-598l-122 -368l165 -19v-90h-424zM442 598h519l-259 772zM623 1628 q0 -82 82 -82q38 0 57.5 23t19.5 63q0 84 -77 84q-38 0 -60 -22.5t-22 -65.5z" />
<glyph unicode="&#xc6;" horiz-adv-x="2045" d="M20 0v90l86 23q40 10 58 39l686 1224l-156 15v92h1215v-307l-105 6l-28 159q-4 27 -35 27h-537v-582h574v-114h-574v-557h582q18 0 24 3.5t9 18.5l32 178h103v-315h-1049v90l125 14q24 3 30.5 11t6.5 32v525h-471l-317 -563l145 -19v-90h-404zM664 793h403v575h-78z" />
<glyph unicode="&#xc7;" horiz-adv-x="1400" d="M113 754q0 164 46 300.5t134 238.5t227.5 159t317.5 57q136 0 254 -29t192 -79v-299l-104 6l-35 192q-1 10 -2.5 15.5t-7.5 11.5t-17 10q-140 52 -291 52q-263 0 -417 -167t-154 -470q0 -317 147.5 -486.5t409.5 -169.5q212 0 320 49q21 9 26 35l33 182h96v-280 q-75 -52 -199 -78.5t-268 -28.5l-8 -65q66 -13 107 -54t41 -108q0 -39 -14 -75.5t-43 -68.5t-82.5 -51.5t-123.5 -19.5q-51 0 -90 8l13 94q30 -6 67 -6q76 0 115 30t39 83q0 45 -33 70t-115 26l19 142q-157 14 -273.5 76t-187.5 165.5t-105 236t-34 296.5z" />
<glyph unicode="&#xc8;" horiz-adv-x="1304" d="M143 0v90l129 14q22 3 27.5 10.5t5.5 30.5v1190q0 24 -6 32t-27 9l-129 15v92h1004v-307l-105 6l-28 159q-3 15 -10.5 21t-24.5 6h-537v-561h574v-115h-574v-577h582q18 0 24 3.5t9 18.5l33 178h102v-315h-1049zM406 1784l81 129l371 -268l-49 -78z" />
<glyph unicode="&#xc9;" horiz-adv-x="1304" d="M143 0v90l129 14q22 3 27.5 10.5t5.5 30.5v1190q0 24 -6 32t-27 9l-129 15v92h1004v-307l-105 6l-28 159q-3 15 -10.5 21t-24.5 6h-537v-561h574v-115h-574v-577h582q18 0 24 3.5t9 18.5l33 178h102v-315h-1049zM465 1647l371 268l82 -129l-404 -217z" />
<glyph unicode="&#xca;" horiz-adv-x="1304" d="M143 0v90l129 14q22 3 27.5 10.5t5.5 30.5v1190q0 24 -6 32t-27 9l-129 15v92h1004v-307l-105 6l-28 159q-3 15 -10.5 21t-24.5 6h-537v-561h574v-115h-574v-577h582q18 0 24 3.5t9 18.5l33 178h102v-315h-1049zM344 1638l238 203h155l238 -203l-72 -69l-244 172 l-243 -172z" />
<glyph unicode="&#xcb;" horiz-adv-x="1304" d="M143 0v90l129 14q22 3 27.5 10.5t5.5 30.5v1190q0 24 -6 32t-27 9l-129 15v92h1004v-307l-105 6l-28 159q-3 15 -10.5 21t-24.5 6h-537v-561h574v-115h-574v-577h582q18 0 24 3.5t9 18.5l33 178h102v-315h-1049zM354 1702q0 45 28.5 72.5t74.5 27.5t74 -27t28 -73 t-28 -73t-74 -27t-74.5 27.5t-28.5 72.5zM762 1702q0 46 28 73t74 27t74.5 -27.5t28.5 -72.5t-28.5 -72.5t-74.5 -27.5t-74 27t-28 73z" />
<glyph unicode="&#xcc;" horiz-adv-x="792" d="M145 0v90l150 14q22 3 27.5 10.5t5.5 30.5v1192q0 24 -6 32t-27 9l-150 15v90h510v-90l-157 -17q-23 -3 -28 -9t-5 -30v-1190q0 -25 5 -31.5t28 -9.5l157 -16v-90h-510zM145 1784l82 129l371 -268l-49 -78z" />
<glyph unicode="&#xcd;" horiz-adv-x="792" d="M145 0v90l150 14q22 3 27.5 10.5t5.5 30.5v1192q0 24 -6 32t-27 9l-150 15v90h510v-90l-157 -17q-23 -3 -28 -9t-5 -30v-1190q0 -25 5 -31.5t28 -9.5l157 -16v-90h-510zM205 1647l370 268l82 -129l-403 -217z" />
<glyph unicode="&#xce;" horiz-adv-x="792" d="M84 1638l238 203h155l238 -203l-72 -69l-244 172l-243 -172zM145 0v90l150 14q22 3 27.5 10.5t5.5 30.5v1192q0 24 -6 32t-27 9l-150 15v90h510v-90l-157 -17q-23 -3 -28 -9t-5 -30v-1190q0 -25 5 -31.5t28 -9.5l157 -16v-90h-510z" />
<glyph unicode="&#xcf;" horiz-adv-x="792" d="M94 1702q0 45 28.5 72.5t74.5 27.5t74 -27t28 -73t-28 -73t-74 -27t-74.5 27.5t-28.5 72.5zM145 0v90l150 14q22 3 27.5 10.5t5.5 30.5v1192q0 24 -6 32t-27 9l-150 15v90h510v-90l-157 -17q-23 -3 -28 -9t-5 -30v-1190q0 -25 5 -31.5t28 -9.5l157 -16v-90h-510z M502 1702q0 46 28 73t74 27t74.5 -27.5t28.5 -72.5t-28.5 -72.5t-74.5 -27.5t-74 27t-28 73z" />
<glyph unicode="&#xd0;" horiz-adv-x="1605" d="M131 700v115h197v520q0 24 -6 32t-27 9l-129 15v92h592q374 0 554.5 -188t180.5 -531q0 -173 -46.5 -311.5t-139 -240.5t-241 -157t-343.5 -55h-557v90l129 14q22 3 27.5 10.5t5.5 30.5v555h-197zM465 121h268q300 0 458.5 159t158.5 453q0 145 -27.5 253.5t-77 180 t-126 116t-167 63t-207.5 18.5h-280v-549h430v-115h-430v-579z" />
<glyph unicode="&#xd1;" horiz-adv-x="1695" d="M143 0v90l129 14q22 3 27.5 10.5t5.5 30.5v1192q0 23 -5.5 30.5t-27.5 10.5l-129 15v92h361l762 -1295v1147q0 23 -5.5 30.5t-27.5 10.5l-129 15v90h467v-90l-137 -17q-23 -3 -28 -9t-5 -30v-1337h-172l-787 1307v-1160q0 -25 5 -31.5t28 -9.5l137 -16v-90h-469z M481 1649l60 84q31 45 58 62t60 17q23 0 68 -10l274 -71q21 -6 33 6l80 80l74 -56l-47 -65q-38 -53 -66 -73.5t-61 -20.5t-60 8l-280 73q-21 6 -33 -6l-86 -84z" />
<glyph unicode="&#xd2;" horiz-adv-x="1603" d="M117 743q0 167 46 306.5t133.5 242t222.5 160t304 57.5q167 0 296.5 -56.5t209.5 -157t121 -232.5t41 -289q0 -244 -77 -422t-235 -277.5t-384 -99.5q-171 0 -302 57t-212.5 161t-122.5 242.5t-41 307.5zM260 743q0 -310 146 -478.5t397 -168.5q252 0 399.5 168.5 t147.5 489.5q0 303 -142.5 469t-388.5 166q-252 0 -405.5 -169.5t-153.5 -476.5zM565 1784l82 129l371 -268l-49 -78z" />
<glyph unicode="&#xd3;" horiz-adv-x="1603" d="M117 743q0 167 46 306.5t133.5 242t222.5 160t304 57.5q167 0 296.5 -56.5t209.5 -157t121 -232.5t41 -289q0 -244 -77 -422t-235 -277.5t-384 -99.5q-171 0 -302 57t-212.5 161t-122.5 242.5t-41 307.5zM260 743q0 -310 146 -478.5t397 -168.5q252 0 399.5 168.5 t147.5 489.5q0 303 -142.5 469t-388.5 166q-252 0 -405.5 -169.5t-153.5 -476.5zM625 1647l370 268l82 -129l-403 -217z" />
<glyph unicode="&#xd4;" horiz-adv-x="1603" d="M117 743q0 167 46 306.5t133.5 242t222.5 160t304 57.5q167 0 296.5 -56.5t209.5 -157t121 -232.5t41 -289q0 -244 -77 -422t-235 -277.5t-384 -99.5q-171 0 -302 57t-212.5 161t-122.5 242.5t-41 307.5zM260 743q0 -310 146 -478.5t397 -168.5q252 0 399.5 168.5 t147.5 489.5q0 303 -142.5 469t-388.5 166q-252 0 -405.5 -169.5t-153.5 -476.5zM504 1638l237 203h156l238 -203l-72 -69l-244 172l-244 -172z" />
<glyph unicode="&#xd5;" horiz-adv-x="1603" d="M117 743q0 167 46 306.5t133.5 242t222.5 160t304 57.5q167 0 296.5 -56.5t209.5 -157t121 -232.5t41 -289q0 -244 -77 -422t-235 -277.5t-384 -99.5q-171 0 -302 57t-212.5 161t-122.5 242.5t-41 307.5zM260 743q0 -310 146 -478.5t397 -168.5q252 0 399.5 168.5 t147.5 489.5q0 303 -142.5 469t-388.5 166q-252 0 -405.5 -169.5t-153.5 -476.5zM467 1649l59 84q31 44 58.5 61.5t60.5 17.5q23 0 68 -10l274 -71q21 -6 33 6l80 80l74 -56l-48 -65q-38 -53 -66 -73.5t-61 -20.5q-32 0 -59 8l-281 73q-20 6 -32 -6l-86 -84z" />
<glyph unicode="&#xd6;" horiz-adv-x="1603" d="M117 743q0 167 46 306.5t133.5 242t222.5 160t304 57.5q167 0 296.5 -56.5t209.5 -157t121 -232.5t41 -289q0 -244 -77 -422t-235 -277.5t-384 -99.5q-171 0 -302 57t-212.5 161t-122.5 242.5t-41 307.5zM260 743q0 -310 146 -478.5t397 -168.5q252 0 399.5 168.5 t147.5 489.5q0 303 -142.5 469t-388.5 166q-252 0 -405.5 -169.5t-153.5 -476.5zM514 1702q0 46 28 73t74 27t74.5 -27.5t28.5 -72.5t-28.5 -72.5t-74.5 -27.5t-74 27t-28 73zM922 1702q0 46 28 73t74 27t74 -27t28 -73t-28 -73t-74 -27t-74 27t-28 73z" />
<glyph unicode="&#xd7;" d="M264 432l221 223l-221 226l98 98l220 -223l221 223l98 -98l-221 -226l221 -223l-98 -98l-221 223l-220 -223z" />
<glyph unicode="&#xd8;" horiz-adv-x="1603" d="M117 754q0 163 46 300.5t133.5 239t222.5 158.5t304 57q117 0 215 -28l58 135h137l-76 -182q163 -87 246.5 -260.5t83.5 -399.5q0 -371 -177 -585t-515 -214q-113 0 -234 31l-69 -166h-140l90 217q-163 90 -244 270.5t-81 426.5zM260 752q0 -201 61.5 -345.5 t174.5 -222.5l493 1180q-80 25 -170 25q-252 0 -405.5 -168t-153.5 -469zM610 125q86 -29 193 -29q251 0 397 168t146 490q0 199 -62.5 341t-177.5 216z" />
<glyph unicode="&#xd9;" horiz-adv-x="1615" d="M125 1393v90h469v-90l-137 -17q-23 -3 -28 -9t-5 -30v-845q0 -212 97 -304t288 -92q195 0 289 88.5t94 302.5v850q0 24 -6 32t-27 9l-129 15v90h469v-90l-137 -17q-23 -3 -28 -9t-5 -30v-856q0 -253 -135 -379.5t-397 -126.5q-269 0 -389.5 127t-120.5 381v854 q0 24 -6 32t-27 9zM563 1784l82 129l371 -268l-49 -78z" />
<glyph unicode="&#xda;" horiz-adv-x="1615" d="M125 1393v90h469v-90l-137 -17q-23 -3 -28 -9t-5 -30v-845q0 -212 97 -304t288 -92q195 0 289 88.5t94 302.5v850q0 24 -6 32t-27 9l-129 15v90h469v-90l-137 -17q-23 -3 -28 -9t-5 -30v-856q0 -253 -135 -379.5t-397 -126.5q-269 0 -389.5 127t-120.5 381v854 q0 24 -6 32t-27 9zM623 1647l370 268l82 -129l-403 -217z" />
<glyph unicode="&#xdb;" horiz-adv-x="1615" d="M125 1393v90h469v-90l-137 -17q-23 -3 -28 -9t-5 -30v-845q0 -212 97 -304t288 -92q195 0 289 88.5t94 302.5v850q0 24 -6 32t-27 9l-129 15v90h469v-90l-137 -17q-23 -3 -28 -9t-5 -30v-856q0 -253 -135 -379.5t-397 -126.5q-269 0 -389.5 127t-120.5 381v854 q0 24 -6 32t-27 9zM502 1638l237 203h156l238 -203l-72 -69l-244 172l-244 -172z" />
<glyph unicode="&#xdc;" horiz-adv-x="1615" d="M125 1393v90h469v-90l-137 -17q-23 -3 -28 -9t-5 -30v-845q0 -212 97 -304t288 -92q195 0 289 88.5t94 302.5v850q0 24 -6 32t-27 9l-129 15v90h469v-90l-137 -17q-23 -3 -28 -9t-5 -30v-856q0 -253 -135 -379.5t-397 -126.5q-269 0 -389.5 127t-120.5 381v854 q0 24 -6 32t-27 9zM512 1702q0 46 28 73t74 27t74.5 -27.5t28.5 -72.5t-28.5 -72.5t-74.5 -27.5t-74 27t-28 73zM920 1702q0 46 28 73t74 27t74 -27t28 -73t-28 -73t-74 -27t-74 27t-28 73z" />
<glyph unicode="&#xdd;" horiz-adv-x="1220" d="M0 1393l20 90h406v-90l-152 -19l351 -665l342 665l-148 19l21 90h381v-90l-86 -23q-38 -11 -52 -39l-393 -743v-441q0 -25 5 -31.5t28 -9.5l199 -16v-90h-592v90l190 14q21 1 27 9t6 32v437l-412 753q-15 27 -49 35zM430 1647l371 268l82 -129l-404 -217z" />
<glyph unicode="&#xde;" horiz-adv-x="1357" d="M143 0v90l129 14q22 3 27.5 10.5t5.5 30.5v1190q0 24 -6 32t-27 9l-129 15v92h488v-90l-158 -17q-23 -3 -28 -10t-5 -31v-100h312q137 0 236 -33.5t153.5 -95t79 -136t24.5 -167.5q0 -244 -144.5 -354.5t-416.5 -110.5h-244v-191q0 -26 5 -33t28 -8l293 -16v-90h-623z M440 459h240q78 0 135.5 7t114 28.5t92.5 58t58 98.5t22 148q0 167 -93 242t-298 75h-271v-657z" />
<glyph unicode="&#xdf;" horiz-adv-x="1310" d="M61 0v92l138 12q21 1 26.5 9t5.5 32v996q0 221 117.5 325.5t331.5 104.5t317 -96t103 -267q0 -255 -226 -350v-6q103 -24 170 -70.5t105.5 -134.5t38.5 -219q0 -202 -112 -324t-302 -122q-79 0 -166.5 21t-142.5 52l45 107q143 -66 254 -66q132 0 206 82t74 250 q0 177 -93.5 266.5t-262.5 89.5q-72 0 -127 -6v115l135 14q128 13 196.5 95.5t68.5 197.5q0 130 -71 192t-212 62q-163 0 -236 -72t-73 -256v-1126h-308z" />
<glyph unicode="&#xe0;" horiz-adv-x="1093" d="M104 248q0 150 91 222.5t278 90.5l293 27v114q0 69 -8.5 112t-33.5 75.5t-71.5 46.5t-120.5 14q-38 0 -57 -0.5t-50 -3.5t-46.5 -9t-35.5 -18t-29.5 -29.5t-17 -44t-7.5 -61.5l-131 17q0 69 25.5 120t62.5 78.5t91.5 43.5t99 20t98.5 4q212 0 290 -76t78 -284v-562 q0 -25 5 -31.5t28 -9.5l106 -14v-90h-249l-19 137l-6 2q-88 -81 -178 -122.5t-201 -41.5q-73 0 -127.5 20t-83.5 48t-47 68t-22.5 71t-4.5 66zM248 264q0 -174 168 -174q100 0 194 56t156 137v196l-268 -24q-143 -13 -196.5 -57t-53.5 -134zM305 1450l107 109l317 -328 l-65 -66z" />
<glyph unicode="&#xe1;" horiz-adv-x="1093" d="M104 248q0 150 91 222.5t278 90.5l293 27v114q0 69 -8.5 112t-33.5 75.5t-71.5 46.5t-120.5 14q-38 0 -57 -0.5t-50 -3.5t-46.5 -9t-35.5 -18t-29.5 -29.5t-17 -44t-7.5 -61.5l-131 17q0 69 25.5 120t62.5 78.5t91.5 43.5t99 20t98.5 4q212 0 290 -76t78 -284v-562 q0 -25 5 -31.5t28 -9.5l106 -14v-90h-249l-19 137l-6 2q-88 -81 -178 -122.5t-201 -41.5q-73 0 -127.5 20t-83.5 48t-47 68t-22.5 71t-4.5 66zM248 264q0 -174 168 -174q100 0 194 56t156 137v196l-268 -24q-143 -13 -196.5 -57t-53.5 -134zM344 1231l318 328l106 -109 l-358 -285z" />
<glyph unicode="&#xe2;" horiz-adv-x="1093" d="M104 248q0 150 91 222.5t278 90.5l293 27v114q0 69 -8.5 112t-33.5 75.5t-71.5 46.5t-120.5 14q-38 0 -57 -0.5t-50 -3.5t-46.5 -9t-35.5 -18t-29.5 -29.5t-17 -44t-7.5 -61.5l-131 17q0 69 25.5 120t62.5 78.5t91.5 43.5t99 20t98.5 4q212 0 290 -76t78 -284v-562 q0 -25 5 -31.5t28 -9.5l106 -14v-90h-249l-19 137l-6 2q-88 -81 -178 -122.5t-201 -41.5q-73 0 -127.5 20t-83.5 48t-47 68t-22.5 71t-4.5 66zM203 1247l254 246h155l254 -246l-78 -67l-253 213l-254 -213zM248 264q0 -174 168 -174q100 0 194 56t156 137v196l-268 -24 q-143 -13 -196.5 -57t-53.5 -134z" />
<glyph unicode="&#xe3;" horiz-adv-x="1093" d="M104 248q0 150 91 222.5t278 90.5l293 27v114q0 69 -8.5 112t-33.5 75.5t-71.5 46.5t-120.5 14q-38 0 -57 -0.5t-50 -3.5t-46.5 -9t-35.5 -18t-29.5 -29.5t-17 -44t-7.5 -61.5l-131 17q0 69 25.5 120t62.5 78.5t91.5 43.5t99 20t98.5 4q212 0 290 -76t78 -284v-562 q0 -25 5 -31.5t28 -9.5l106 -14v-90h-249l-19 137l-6 2q-88 -81 -178 -122.5t-201 -41.5q-73 0 -127.5 20t-83.5 48t-47 68t-22.5 71t-4.5 66zM182 1257l60 84q32 45 58.5 62.5t59.5 17.5q23 0 68 -10q186 -50 274 -72q20 -6 33 7l80 79l74 -55l-47 -65q-38 -53 -66 -74 t-61 -21q-30 0 -60 9q-39 10 -103.5 27t-109.5 29t-67 17q-21 6 -33 -6l-86 -84zM248 264q0 -174 168 -174q100 0 194 56t156 137v196l-268 -24q-143 -13 -196.5 -57t-53.5 -134z" />
<glyph unicode="&#xe4;" horiz-adv-x="1093" d="M104 248q0 150 91 222.5t278 90.5l293 27v114q0 69 -8.5 112t-33.5 75.5t-71.5 46.5t-120.5 14q-38 0 -57 -0.5t-50 -3.5t-46.5 -9t-35.5 -18t-29.5 -29.5t-17 -44t-7.5 -61.5l-131 17q0 69 25.5 120t62.5 78.5t91.5 43.5t99 20t98.5 4q212 0 290 -76t78 -284v-562 q0 -25 5 -31.5t28 -9.5l106 -14v-90h-249l-19 137l-6 2q-88 -81 -178 -122.5t-201 -41.5q-73 0 -127.5 20t-83.5 48t-47 68t-22.5 71t-4.5 66zM229 1348q0 45 28.5 72.5t74.5 27.5t74 -27t28 -73t-28 -73.5t-74 -27.5t-74.5 27.5t-28.5 73.5zM248 264q0 -174 168 -174 q100 0 194 56t156 137v196l-268 -24q-143 -13 -196.5 -57t-53.5 -134zM637 1348q0 46 28 73t74 27t74.5 -27.5t28.5 -72.5q0 -46 -28.5 -73.5t-74.5 -27.5t-74 27.5t-28 73.5z" />
<glyph unicode="&#xe5;" horiz-adv-x="1093" d="M104 248q0 150 91 222.5t278 90.5l293 27v114q0 69 -8.5 112t-33.5 75.5t-71.5 46.5t-120.5 14q-38 0 -57 -0.5t-50 -3.5t-46.5 -9t-35.5 -18t-29.5 -29.5t-17 -44t-7.5 -61.5l-131 17q0 69 25.5 120t62.5 78.5t91.5 43.5t99 20t98.5 4q212 0 290 -76t78 -284v-562 q0 -25 5 -31.5t28 -9.5l106 -14v-90h-249l-19 137l-6 2q-88 -81 -178 -122.5t-201 -41.5q-73 0 -127.5 20t-83.5 48t-47 68t-22.5 71t-4.5 66zM248 264q0 -174 168 -174q100 0 194 56t156 137v196l-268 -24q-143 -13 -196.5 -57t-53.5 -134zM336 1315q0 86 51 131t131 45 q82 0 133 -43.5t51 -128.5q0 -82 -49 -127t-135 -45q-85 0 -133.5 43.5t-48.5 124.5zM436 1315q0 -76 82 -76t82 80q0 78 -82 78t-82 -82z" />
<glyph unicode="&#xe6;" horiz-adv-x="1705" d="M104 246q0 151 90.5 224t278.5 91l293 27v114q0 69 -8.5 112t-33.5 75.5t-71.5 46.5t-120.5 14q-38 0 -57 -0.5t-50 -3.5t-46.5 -9t-35.5 -18t-29.5 -29.5t-17 -44t-7.5 -61.5l-131 17q0 69 25.5 120t62 78.5t91 43.5t98 20t97.5 4q145 0 225 -38.5t113 -127.5 q125 166 342 166q93 0 166.5 -27t129.5 -83t86 -150.5t30 -222.5q0 -26 -4 -88h-717q10 -396 346 -396q91 0 152 17t139 59l51 -115q-149 -86 -352 -86q-273 0 -389 185q-119 -97 -227 -141t-236 -44q-72 0 -126 19.5t-83 48t-46.5 68t-22.5 70.5t-5 65zM248 260 q0 -170 172 -170q98 0 209.5 55t169.5 129q-27 91 -33 203l-268 -22q-144 -13 -197 -57.5t-53 -137.5zM903 610h580q-3 178 -76.5 257t-192.5 79q-129 0 -213.5 -79t-97.5 -257z" />
<glyph unicode="&#xe7;" horiz-adv-x="974" d="M92 512q0 143 39 251t110 173.5t165.5 98t211.5 32.5q157 0 291 -55v-252l-104 6l-25 135q-3 21 -22 27q-58 20 -156 20q-79 0 -144 -23.5t-115.5 -73.5t-78.5 -134.5t-28 -198.5q0 -214 94.5 -317t265.5 -103q150 0 264 72l53 -115q-53 -34 -140.5 -56.5t-180.5 -23.5 l-8 -65q66 -13 106.5 -54t40.5 -108q0 -39 -14 -75t-43 -68.5t-82 -52t-123 -19.5q-51 0 -90 8l12 94q30 -6 68 -6q76 0 114.5 30t38.5 83q0 45 -32.5 70t-114.5 26l18 144q-198 27 -294.5 167t-96.5 363z" />
<glyph unicode="&#xe8;" horiz-adv-x="1036" d="M92 528q0 263 126.5 401t324.5 138q192 0 301.5 -116t109.5 -367q0 -26 -4 -88h-714q10 -396 344 -396q91 0 151.5 17t138.5 59l52 -115q-149 -86 -353 -86q-106 0 -188.5 28t-136 77t-88.5 120t-49.5 151.5t-14.5 176.5zM240 606h573q-3 179 -76.5 259.5t-191.5 80.5 q-128 0 -210 -80.5t-95 -259.5zM311 1450l107 109l317 -328l-65 -66z" />
<glyph unicode="&#xe9;" horiz-adv-x="1036" d="M92 528q0 263 126.5 401t324.5 138q192 0 301.5 -116t109.5 -367q0 -26 -4 -88h-714q10 -396 344 -396q91 0 151.5 17t138.5 59l52 -115q-149 -86 -353 -86q-106 0 -188.5 28t-136 77t-88.5 120t-49.5 151.5t-14.5 176.5zM240 606h573q-3 179 -76.5 259.5t-191.5 80.5 q-128 0 -210 -80.5t-95 -259.5zM350 1231l318 328l106 -109l-358 -285z" />
<glyph unicode="&#xea;" horiz-adv-x="1036" d="M92 528q0 263 126.5 401t324.5 138q192 0 301.5 -116t109.5 -367q0 -26 -4 -88h-714q10 -396 344 -396q91 0 151.5 17t138.5 59l52 -115q-149 -86 -353 -86q-106 0 -188.5 28t-136 77t-88.5 120t-49.5 151.5t-14.5 176.5zM209 1247l254 246h155l254 -246l-77 -67 l-254 213l-254 -213zM240 606h573q-3 179 -76.5 259.5t-191.5 80.5q-128 0 -210 -80.5t-95 -259.5z" />
<glyph unicode="&#xeb;" horiz-adv-x="1036" d="M92 528q0 263 126.5 401t324.5 138q192 0 301.5 -116t109.5 -367q0 -26 -4 -88h-714q10 -396 344 -396q91 0 151.5 17t138.5 59l52 -115q-149 -86 -353 -86q-106 0 -188.5 28t-136 77t-88.5 120t-49.5 151.5t-14.5 176.5zM236 1348q0 46 28 73t74 27t74 -27t28 -73 t-28 -73.5t-74 -27.5t-74 27.5t-28 73.5zM240 606h573q-3 179 -76.5 259.5t-191.5 80.5q-128 0 -210 -80.5t-95 -259.5zM643 1348q0 46 28 73t74 27t74.5 -27.5t28.5 -72.5q0 -46 -28.5 -73.5t-74.5 -27.5t-74 27.5t-28 73.5z" />
<glyph unicode="&#xec;" horiz-adv-x="591" d="M37 1450l106 109l318 -328l-66 -66zM57 0v92l148 12q22 3 27.5 10.5t5.5 30.5v734q0 35 -27 43l-119 39l17 86h266v-902q0 -25 5 -31.5t28 -9.5l143 -14v-90h-494z" />
<glyph unicode="&#xed;" horiz-adv-x="591" d="M57 0v92l148 12q22 3 27.5 10.5t5.5 30.5v734q0 35 -27 43l-119 39l17 86h266v-902q0 -25 5 -31.5t28 -9.5l143 -14v-90h-494zM76 1231l317 328l107 -109l-359 -285z" />
<glyph unicode="&#xee;" horiz-adv-x="591" d="M-25 1247l213 246h156l213 -246l-78 -67l-213 213l-213 -213zM57 0v92l148 12q22 3 27.5 10.5t5.5 30.5v734q0 35 -27 43l-119 39l17 86h266v-902q0 -25 5 -31.5t28 -9.5l143 -14v-90h-494z" />
<glyph unicode="&#xef;" horiz-adv-x="591" d="M-12 1348q0 46 28 73t74 27t74.5 -27.5t28.5 -72.5q0 -46 -28.5 -73.5t-74.5 -27.5t-74 27.5t-28 73.5zM57 0v92l148 12q22 3 27.5 10.5t5.5 30.5v734q0 35 -27 43l-119 39l17 86h266v-902q0 -25 5 -31.5t28 -9.5l143 -14v-90h-494zM334 1348q0 46 28 73t74 27 t74.5 -27.5t28.5 -72.5q0 -46 -28.5 -73.5t-74.5 -27.5t-74 27.5t-28 73.5z" />
<glyph unicode="&#xf0;" horiz-adv-x="1126" d="M92 518q0 105 30.5 196t88.5 161t149.5 110.5t204.5 40.5q73 0 157 -25t140 -69l4 2q-57 221 -188 346l-225 -121l-58 96l187 101q-125 79 -299 100l45 105q224 -23 379 -138l208 113l58 -98l-174 -95q233 -245 233 -702q0 -66 -5 -126.5t-19 -129t-36 -126t-59 -111 t-85 -91t-116 -60t-151 -22.5q-240 0 -354.5 141t-114.5 402zM233 516q0 -85 15.5 -156t50.5 -135t102 -100.5t160 -36.5q79 0 139.5 32.5t98 84t61 124.5t32.5 146.5t9 157.5q0 69 -6 137q-40 55 -130 95t-185 40q-169 0 -258 -105.5t-89 -283.5z" />
<glyph unicode="&#xf1;" horiz-adv-x="1294" d="M92 961l17 86h231l16 -127l6 -2q200 149 398 149q172 0 244.5 -99.5t72.5 -289.5v-533q0 -25 5 -31.5t28 -9.5l123 -14v-90h-432v92l106 12q22 3 27.5 9.5t5.5 29.5v492q0 161 -48.5 234t-160.5 73q-100 0 -198 -49t-158 -105v-643q0 -25 5 -31.5t28 -9.5l122 -14v-90 h-432v92l107 12q22 3 27.5 10.5t5.5 30.5v734q0 35 -27 43zM279 1257l59 84q31 45 58.5 62.5t60.5 17.5q22 0 67 -10q177 -48 275 -72q19 -6 32 7l80 79l74 -55l-47 -65q-38 -53 -66 -74t-61 -21q-29 0 -59 9q-37 9 -103.5 26.5t-111 29.5t-66.5 17q-21 6 -33 -6l-86 -84z " />
<glyph unicode="&#xf2;" horiz-adv-x="1153" d="M92 526q0 163 53 282.5t167 189t280 69.5q124 0 215.5 -39t146 -110.5t81 -165t26.5 -211.5q0 -266 -122 -416t-368 -150q-125 0 -218 40.5t-149.5 115t-84 173t-27.5 222.5zM233 524q0 -212 88 -324t257 -112t255.5 110.5t86.5 327.5q0 211 -82 315.5t-250 104.5 q-172 0 -263.5 -106.5t-91.5 -315.5zM362 1450l107 109l317 -328l-65 -66z" />
<glyph unicode="&#xf3;" horiz-adv-x="1153" d="M92 526q0 163 53 282.5t167 189t280 69.5q124 0 215.5 -39t146 -110.5t81 -165t26.5 -211.5q0 -266 -122 -416t-368 -150q-125 0 -218 40.5t-149.5 115t-84 173t-27.5 222.5zM233 524q0 -212 88 -324t257 -112t255.5 110.5t86.5 327.5q0 211 -82 315.5t-250 104.5 q-172 0 -263.5 -106.5t-91.5 -315.5zM401 1231l318 328l106 -109l-358 -285z" />
<glyph unicode="&#xf4;" horiz-adv-x="1153" d="M92 526q0 163 53 282.5t167 189t280 69.5q124 0 215.5 -39t146 -110.5t81 -165t26.5 -211.5q0 -266 -122 -416t-368 -150q-125 0 -218 40.5t-149.5 115t-84 173t-27.5 222.5zM233 524q0 -212 88 -324t257 -112t255.5 110.5t86.5 327.5q0 211 -82 315.5t-250 104.5 q-172 0 -263.5 -106.5t-91.5 -315.5zM260 1247l254 246h156l254 -246l-78 -67l-254 213l-254 -213z" />
<glyph unicode="&#xf5;" horiz-adv-x="1153" d="M92 526q0 163 53 282.5t167 189t280 69.5q124 0 215.5 -39t146 -110.5t81 -165t26.5 -211.5q0 -266 -122 -416t-368 -150q-125 0 -218 40.5t-149.5 115t-84 173t-27.5 222.5zM233 524q0 -212 88 -324t257 -112t255.5 110.5t86.5 327.5q0 211 -82 315.5t-250 104.5 q-172 0 -263.5 -106.5t-91.5 -315.5zM240 1257l59 84q31 45 58.5 62.5t60.5 17.5q22 0 67 -10q177 -48 275 -72q20 -6 33 7l79 79l74 -55l-47 -65q-38 -53 -66 -74t-61 -21q-29 0 -59 9q-37 9 -103.5 26.5t-111 29.5t-66.5 17q-21 6 -33 -6l-86 -84z" />
<glyph unicode="&#xf6;" horiz-adv-x="1153" d="M92 526q0 163 53 282.5t167 189t280 69.5q124 0 215.5 -39t146 -110.5t81 -165t26.5 -211.5q0 -266 -122 -416t-368 -150q-125 0 -218 40.5t-149.5 115t-84 173t-27.5 222.5zM233 524q0 -212 88 -324t257 -112t255.5 110.5t86.5 327.5q0 211 -82 315.5t-250 104.5 q-172 0 -263.5 -106.5t-91.5 -315.5zM287 1348q0 46 28 73t74 27t74.5 -27.5t28.5 -72.5q0 -46 -28.5 -73.5t-74.5 -27.5t-74 27.5t-28 73.5zM694 1348q0 45 28.5 72.5t74.5 27.5t74 -27t28 -73t-28 -73.5t-74 -27.5t-74.5 27.5t-28.5 73.5z" />
<glyph unicode="&#xf7;" d="M201 590v135h764v-135h-764zM451 350q0 117 118 117q119 0 119 -117t-119 -117q-118 0 -118 117zM451 969q0 116 118 116q119 0 119 -116q0 -117 -119 -117q-118 0 -118 117z" />
<glyph unicode="&#xf8;" horiz-adv-x="1153" d="M92 526q0 163 53 282.5t167 189t280 69.5q91 0 158 -20l67 149h135l-88 -199q197 -127 197 -456q0 -266 -122 -416t-368 -150q-65 0 -151 19l-80 -182h-137l100 229q-211 129 -211 485zM233 524q0 -254 123 -362l342 770q-58 14 -110 14q-172 0 -263.5 -106.5 t-91.5 -315.5zM469 102q46 -14 109 -14q169 0 255.5 110.5t86.5 327.5q0 244 -111 346z" />
<glyph unicode="&#xf9;" horiz-adv-x="1288" d="M96 961l15 86h264v-658q0 -158 39 -227.5t145 -69.5q194 0 375 211v580q0 26 -5.5 34.5t-27.5 12.5l-110 31l14 86h266v-900q0 -23 6 -32t21 -11l112 -14v-90h-252l-18 150l-4 2q-194 -177 -404 -177q-163 0 -228.5 95t-65.5 282v529q0 26 -5.5 35.5t-27.5 13.5z M399 1450l107 109l317 -328l-65 -66z" />
<glyph unicode="&#xfa;" horiz-adv-x="1288" d="M96 961l15 86h264v-658q0 -158 39 -227.5t145 -69.5q194 0 375 211v580q0 26 -5.5 34.5t-27.5 12.5l-110 31l14 86h266v-900q0 -23 6 -32t21 -11l112 -14v-90h-252l-18 150l-4 2q-194 -177 -404 -177q-163 0 -228.5 95t-65.5 282v529q0 26 -5.5 35.5t-27.5 13.5z M473 1231l318 328l106 -109l-358 -285z" />
<glyph unicode="&#xfb;" horiz-adv-x="1288" d="M96 961l15 86h264v-658q0 -158 39 -227.5t145 -69.5q194 0 375 211v580q0 26 -5.5 34.5t-27.5 12.5l-110 31l14 86h266v-900q0 -23 6 -32t21 -11l112 -14v-90h-252l-18 150l-4 2q-194 -177 -404 -177q-163 0 -228.5 95t-65.5 282v529q0 26 -5.5 35.5t-27.5 13.5z M297 1247l254 246h156l254 -246l-78 -67l-254 213l-254 -213z" />
<glyph unicode="&#xfc;" horiz-adv-x="1288" d="M96 961l15 86h264v-658q0 -158 39 -227.5t145 -69.5q194 0 375 211v580q0 26 -5.5 34.5t-27.5 12.5l-110 31l14 86h266v-900q0 -23 6 -32t21 -11l112 -14v-90h-252l-18 150l-4 2q-194 -177 -404 -177q-163 0 -228.5 95t-65.5 282v529q0 26 -5.5 35.5t-27.5 13.5z M324 1348q0 46 28 73t74 27t74 -27t28 -73t-28 -73.5t-74 -27.5t-74 27.5t-28 73.5zM731 1348q0 45 28.5 72.5t74.5 27.5t74 -27t28 -73t-28 -73.5t-74 -27.5t-74.5 27.5t-28.5 73.5z" />
<glyph unicode="&#xfd;" horiz-adv-x="1161" d="M20 956l21 91h389v-91l-139 -16l293 -756l305 756l-141 16l20 91h373v-91l-70 -10q-21 -3 -32.5 -10.5t-18.5 -24.5l-518 -1237l192 -18v-90h-504v92l144 16q17 1 25 10t18 33l131 303l-361 881q-7 18 -15 24t-28 11zM457 1231l317 328l107 -109l-359 -285z" />
<glyph unicode="&#xfe;" horiz-adv-x="1183" d="M61 1460l17 86h266v-622q98 68 182 105.5t183 37.5q180 0 281.5 -123.5t101.5 -378.5q0 -271 -91.5 -413.5t-257.5 -169.5q-47 -7 -81 -7q-190 0 -314 121l-4 -2v-383q0 -26 5 -33t28 -8l184 -14v-90h-473v92l86 12q21 3 27 11t6 30v1667q0 35 -27 43zM344 246 q62 -65 143.5 -108.5t161.5 -43.5q163 0 235 116.5t72 338.5q0 395 -270 395q-91 0 -184.5 -46.5t-157.5 -100.5v-551z" />
<glyph unicode="&#xff;" horiz-adv-x="1161" d="M20 956l21 91h389v-91l-139 -16l293 -756l305 756l-141 16l20 91h373v-91l-70 -10q-21 -3 -32.5 -10.5t-18.5 -24.5l-518 -1237l192 -18v-90h-504v92l144 16q17 1 25 10t18 33l131 303l-361 881q-7 18 -15 24t-28 11zM274 1348q0 45 28.5 72.5t74.5 27.5t74 -27t28 -73 t-28 -73.5t-74 -27.5t-74.5 27.5t-28.5 73.5zM682 1348q0 46 28 73t74 27t74.5 -27.5t28.5 -72.5q0 -46 -28.5 -73.5t-74.5 -27.5t-74 27.5t-28 73.5z" />
<glyph unicode="&#x152;" horiz-adv-x="2015" d="M117 754q0 133 20 244.5t66.5 207.5t117 162t177 103.5t241.5 37.5q107 0 203 -26h936v-307l-104 6l-29 159q-3 15 -10.5 21t-24.5 6h-567q173 -173 180 -561h444v-115h-446q-16 -405 -199 -577h633q18 0 24 3.5t9 18.5l33 178h102v-315h-1012q-92 -25 -200 -25 q-137 0 -241 38t-170.5 104.5t-108 166.5t-58 213.5t-16.5 256.5zM260 752q0 -329 109 -492.5t350 -163.5t352 162t111 496q0 311 -111 473t-336 162q-230 0 -352.5 -164.5t-122.5 -472.5z" />
<glyph unicode="&#x153;" horiz-adv-x="1859" d="M92 526q0 163 53 282.5t167 189t280 69.5q291 0 401 -219q56 108 152.5 163.5t220.5 55.5q93 0 166.5 -27t129.5 -83t86 -150.5t30 -222.5q0 -26 -4 -88h-715q10 -396 344 -396q91 0 152 17t139 59l51 -115q-149 -86 -352 -86q-305 0 -408 230q-114 -230 -414 -230 q-125 0 -218 40.5t-149.5 115t-84 173t-27.5 222.5zM233 524q0 -212 88 -324t257 -112t255.5 110.5t86.5 327.5q0 211 -82 315.5t-250 104.5q-172 0 -263.5 -106.5t-91.5 -315.5zM1063 610h573q-3 178 -76.5 257t-191.5 79q-128 0 -210 -78.5t-95 -257.5z" />
<glyph unicode="&#x178;" horiz-adv-x="1220" d="M0 1393l20 90h406v-90l-152 -19l351 -665l342 665l-148 19l21 90h381v-90l-86 -23q-38 -11 -52 -39l-393 -743v-441q0 -25 5 -31.5t28 -9.5l199 -16v-90h-592v90l190 14q21 1 27 9t6 32v437l-412 753q-15 27 -49 35zM319 1702q0 45 28.5 72.5t74.5 27.5t74 -27t28 -73 t-28 -73t-74 -27t-74.5 27.5t-28.5 72.5zM727 1702q0 46 28 73t74 27t74.5 -27.5t28.5 -72.5t-28.5 -72.5t-74.5 -27.5t-74 27t-28 73z" />
<glyph unicode="&#x2c6;" horiz-adv-x="1024" d="M180 1247l254 246h156l254 -246l-78 -67l-254 213l-254 -213z" />
<glyph unicode="&#x2dc;" horiz-adv-x="1024" d="M158 1257l59 84q31 45 58.5 62.5t60.5 17.5q22 0 67 -10q177 -48 275 -72q20 -6 33 7l80 79l73 -55l-47 -65q-38 -53 -66 -74t-61 -21q-29 0 -59 9q-37 9 -103.5 26.5t-111 29.5t-66.5 17q-21 6 -33 -6l-86 -84z" />
<glyph unicode="&#x2000;" horiz-adv-x="957" />
<glyph unicode="&#x2001;" horiz-adv-x="1915" />
<glyph unicode="&#x2002;" horiz-adv-x="957" />
<glyph unicode="&#x2003;" horiz-adv-x="1915" />
<glyph unicode="&#x2004;" horiz-adv-x="638" />
<glyph unicode="&#x2005;" horiz-adv-x="478" />
<glyph unicode="&#x2006;" horiz-adv-x="319" />
<glyph unicode="&#x2007;" horiz-adv-x="319" />
<glyph unicode="&#x2008;" horiz-adv-x="239" />
<glyph unicode="&#x2009;" horiz-adv-x="383" />
<glyph unicode="&#x200a;" horiz-adv-x="106" />
<glyph unicode="&#x2010;" horiz-adv-x="636" d="M41 522v152h555v-152h-555z" />
<glyph unicode="&#x2011;" horiz-adv-x="636" d="M41 522v152h555v-152h-555z" />
<glyph unicode="&#x2012;" horiz-adv-x="636" d="M41 522v152h555v-152h-555z" />
<glyph unicode="&#x2013;" horiz-adv-x="1021" d="M0 522v111h1022v-111h-1022z" />
<glyph unicode="&#x2014;" horiz-adv-x="2048" d="M0 522v111h2046v-111h-2046z" />
<glyph unicode="&#x2018;" horiz-adv-x="362" d="M92 1255q0 28 27 84l108 207l74 -28l-59 -193q-3 -13 10 -18l59 -27l-41 -135q-93 5 -135.5 26.5t-42.5 83.5z" />
<glyph unicode="&#x2019;" horiz-adv-x="362" d="M51 1411l41 135q93 -5 135.5 -26.5t42.5 -83.5q0 -30 -26 -84l-109 -207l-74 29l60 192q3 13 -10 18z" />
<glyph unicode="&#x201a;" horiz-adv-x="339" d="M70 27l41 135q93 -5 135.5 -27t42.5 -84q0 -38 -27 -84l-108 -207l-74 29l59 193q3 13 -10 18z" />
<glyph unicode="&#x201c;" horiz-adv-x="655" d="M92 1255q0 28 27 84l108 207l74 -28l-59 -193q-3 -13 10 -18l59 -27l-41 -135q-93 5 -135.5 26.5t-42.5 83.5zM385 1255q0 28 27 84l108 207l74 -28l-59 -193q-3 -13 10 -18l59 -27l-41 -135q-93 5 -135.5 26.5t-42.5 83.5z" />
<glyph unicode="&#x201d;" horiz-adv-x="655" d="M51 1411l41 135q93 -5 135.5 -26.5t42.5 -83.5q0 -30 -26 -84l-109 -207l-74 29l60 192q3 13 -10 18zM344 1411l41 135q93 -5 135.5 -26.5t42.5 -83.5q0 -30 -26 -84l-109 -207l-74 29l60 192q3 13 -11 18z" />
<glyph unicode="&#x201e;" horiz-adv-x="632" d="M70 27l41 135q93 -5 135.5 -27t42.5 -84q0 -38 -27 -84l-108 -207l-74 29l59 193q3 13 -10 18zM362 27l41 135q93 -5 136 -27t43 -84q0 -38 -27 -84l-109 -207l-73 29l59 193q3 13 -10 18z" />
<glyph unicode="&#x2022;" horiz-adv-x="747" d="M104 573q0 130 70 197.5t199 67.5q130 0 200 -67t70 -198t-70 -197.5t-200 -66.5q-129 0 -199 67t-70 197z" />
<glyph unicode="&#x2026;" horiz-adv-x="1124" d="M84 92q0 117 119 117t119 -117t-119 -117t-119 117zM459 92q0 117 119 117q118 0 118 -117t-118 -117q-119 0 -119 117zM834 92q0 117 118 117q119 0 119 -117t-119 -117q-118 0 -118 117z" />
<glyph unicode="&#x202f;" horiz-adv-x="383" />
<glyph unicode="&#x2039;" horiz-adv-x="569" d="M133 532l182 304h136l-150 -279q-7 -13 -7.5 -20t5.5 -19l150 -307h-136z" />
<glyph unicode="&#x203a;" horiz-adv-x="569" d="M119 211l149 289q7 13 7.5 20t-5.5 19l-149 297h135l180 -314l-182 -311h-135z" />
<glyph unicode="&#x205f;" horiz-adv-x="478" />
<glyph unicode="&#x20ac;" horiz-adv-x="1064" d="M12 457l21 114h131q-2 25 -2 80q0 42 2 62h-111l21 114h100q40 246 182.5 370t348.5 124q169 0 299 -61v-277l-99 8l-26 150q-3 25 -27 35q-57 22 -162 22q-147 0 -247.5 -93.5t-131.5 -277.5h453l-21 -114h-442v-43q0 -68 2 -99h420l-21 -114h-385q65 -363 367 -363 q105 0 164 23q25 9 29 37l24 147l98 8v-274q-49 -21 -134.5 -40.5t-180.5 -19.5q-218 0 -346.5 122t-163.5 360h-162z" />
<glyph unicode="&#x2122;" horiz-adv-x="1685" d="M41 1280v203h653v-203h-67l-19 113h-188v-602l137 -11v-67h-371v67l127 11v602h-184l-20 -113h-68zM764 713v65l86 10v613l-86 10v72h194l246 -490l252 490h184v-72l-88 -10v-613l93 -10v-65h-295v65l102 10v486l-211 -395h-82l-207 397v-488l109 -10v-65h-297z" />
<glyph unicode="&#xe000;" horiz-adv-x="1044" d="M0 0v1044h1044v-1044h-1044z" />
</font>
</defs>
</svg>
